<svg width="40" height="41" viewBox="0 0 40 41" fill="none" xmlns="http://www.w3.org/2000/svg">
<g clip-path="url(#clip0_3336_21762)">
<path fill-rule="evenodd" clip-rule="evenodd" d="M13.5957 4.04565C-1.16324 10.038 -1.68491 30.1597 12.1235 37.0327C25.2733 43.5726 40.4018 32.4958 37.9881 17.8373C36.163 6.80611 24.6041 0.0669439 14.0596 3.86923L13.6246 4.03348L13.5957 4.04565ZM13.9927 4.98101C23.8786 1.27759 34.5356 6.93691 36.82 17.1726C39.8619 30.7848 26.0474 42.0654 13.3174 36.47C-0.366283 30.4548 -0.326739 10.765 13.9927 4.98101Z" fill="#061223"/>
<path d="M32.59 33.2787C39.4454 26.4232 39.4454 15.3084 32.59 8.45303C25.7346 1.59762 14.6198 1.59762 7.76438 8.45303C0.90897 15.3084 0.90897 26.4233 7.76438 33.2787C14.6198 40.1341 25.7346 40.1341 32.59 33.2787Z" fill="#0975E7"/>
<path fill-rule="evenodd" clip-rule="evenodd" d="M9.77204 6.72241C8.58391 7.59357 7.51075 8.61154 6.57812 9.75206C10.7059 18.6524 30.5006 10.9505 12.7758 6.76043C12.6238 6.72545 11.2549 6.71024 9.77204 6.72241Z" fill="#006CCE"/>
<path fill-rule="evenodd" clip-rule="evenodd" d="M0.926587 21.8433C0.874876 26.8395 3.31442 32.1323 7.18362 35.3293C8.714 36.5784 10.436 37.5721 12.2832 38.2722C13.5121 38.7468 13.4437 38.4441 13.5882 37.127C14.2969 30.5703 11.0924 24.4502 4.72583 22.1019C3.66065 21.699 2.53979 21.4625 1.40263 21.4008L1.38438 21.857L0.928108 21.8433H0.926587ZM1.83913 22.3574C3.30013 22.5154 4.71459 22.9648 5.99883 23.6791C11.3129 26.5354 13.2992 31.7551 12.6194 37.4175C10.8232 36.7118 9.28552 35.8844 7.76005 34.6236C4.23914 31.711 1.95777 26.9278 1.84522 22.3574H1.83913Z" fill="#061223"/>
<path fill-rule="evenodd" clip-rule="evenodd" d="M1.38415 21.8571C1.38415 21.8571 1.00544 33.7962 13.0009 38.0502C14.7149 27.5042 6.67236 22.0791 1.38415 21.8571Z" fill="#0975E7"/>
<path fill-rule="evenodd" clip-rule="evenodd" d="M2.37598 27.498C3.63986 31.1923 6.50678 35.7475 13.0011 38.0501C13.0011 38.0501 5.04214 34.0988 2.37598 27.498Z" fill="#FEFEFE"/>
<path fill-rule="evenodd" clip-rule="evenodd" d="M37.646 17.416C39.6126 26.9977 34.4643 35.5422 25.386 38.7787L25.2658 38.8198C22.335 33.3293 22.8247 27.3506 26.916 22.546C29.6323 19.3521 33.4361 17.3749 37.646 17.419V17.416ZM38.5586 16.8334C38.5513 16.7921 38.539 16.7517 38.5221 16.7133C38.4936 16.6553 38.4537 16.6036 38.405 16.5612H38.3974C38.3518 16.5248 38.3004 16.4965 38.2453 16.4776H38.2346H38.1753C38.1375 16.4683 38.0987 16.4637 38.0597 16.4639C35.9764 16.3552 33.8967 16.7376 31.9882 17.5802C23.8787 21.0783 19.9822 30.5566 24.0019 38.6631C24.6468 39.965 24.5677 40.1977 25.7251 39.7855C35.4103 36.2829 40.8339 27.0722 38.5586 16.8334Z" fill="#061223"/>
<path fill-rule="evenodd" clip-rule="evenodd" d="M38.058 16.9202C40.0777 25.0692 36.4352 35.67 25.0268 39.4388C18.4549 28.2373 28.172 16.324 38.058 16.9202Z" fill="#0975E7"/>
<path fill-rule="evenodd" clip-rule="evenodd" d="M24.6389 38.7315C18.8595 27.7414 28.3804 16.3376 38.0579 16.9201C23.4313 18.5748 21.4967 32.4121 24.6389 38.7315Z" fill="#E6E7E8"/>
<path fill-rule="evenodd" clip-rule="evenodd" d="M28.4271 35.3779C28.5673 35.3222 28.721 35.3095 28.8685 35.3414C29.016 35.3733 29.1507 35.4484 29.2554 35.5571C29.3601 35.6657 29.4301 35.8031 29.4565 35.9517C29.4828 36.1003 29.4644 36.2533 29.4036 36.3914C29.3427 36.5295 29.2421 36.6464 29.1146 36.7271C28.9872 36.8079 28.8385 36.8488 28.6877 36.8449C28.5368 36.8409 28.3906 36.7921 28.2675 36.7048C28.1445 36.6174 28.0502 36.4954 27.9967 36.3543C27.9259 36.1676 27.9313 35.9606 28.0119 35.7779C28.0924 35.5953 28.2415 35.4516 28.4271 35.3779Z" fill="#229EF2"/>
<path fill-rule="evenodd" clip-rule="evenodd" d="M29.6 34.6129C33.0479 31.7506 35.092 28.9277 35.8479 24.543C35.8758 24.3992 35.9547 24.2703 36.0701 24.18C36.1854 24.0897 36.3295 24.044 36.4758 24.0514C36.6221 24.0588 36.7608 24.1188 36.8665 24.2202C36.9721 24.3217 37.0376 24.4579 37.0509 24.6038L36.6798 26.768C35.7581 30.0852 32.9231 33.4296 30.3315 35.5726C30.2036 35.6452 30.0537 35.669 29.9096 35.6396C29.7655 35.6102 29.6369 35.5296 29.5477 35.4127C29.4584 35.2958 29.4145 35.1505 29.4242 35.0038C29.4338 34.857 29.4962 34.7187 29.6 34.6144V34.6129Z" fill="#229EF2"/>
<path fill-rule="evenodd" clip-rule="evenodd" d="M6.25413 8.74368C14.172 13.2821 24.3347 13.1984 32.6678 9.85699C34.5918 9.08589 34.3499 8.67068 36.2024 10.4273C37.7583 11.9041 39.4283 16.33 38.1188 17.7277C36.9264 19.0053 29.2473 21.4159 27.3492 21.8448C19.3826 23.6456 9.14843 23.095 1.79785 19.3597C0.413824 18.6555 2.13093 12.8638 2.95375 11.4752C3.82827 9.99844 4.31344 9.63342 5.6336 8.77866C5.67882 8.73993 5.73023 8.70908 5.78569 8.68741C5.85023 8.66818 5.91796 8.66197 5.98493 8.66916H6.02447C6.09087 8.6765 6.15533 8.69609 6.21458 8.72695H6.22219H6.23284L6.24348 8.73456L6.25413 8.74368ZM5.99405 9.79311C3.01763 11.8448 2.32865 15.0828 2.51268 18.5277C13.9393 23.2106 26.4412 23.1346 37.369 16.9581C37.7294 13.7338 36.7332 12.1581 34.2906 10.2996C25.1652 14.1095 14.8153 14.7193 5.99405 9.79311Z" fill="#061223"/>
<path fill-rule="evenodd" clip-rule="evenodd" d="M5.97423 9.18323C5.97423 9.18323 18.251 16.9809 34.3621 9.70338C38.9963 12.4091 37.8404 17.2912 37.8404 17.2912C37.8404 17.2912 21.4967 27.5604 2.01377 18.8882C1.44191 14.8395 3.32784 10.4578 5.97423 9.18323Z" fill="#D9DDE1"/>
<path fill-rule="evenodd" clip-rule="evenodd" d="M5.97402 9.18323C5.97402 9.18323 8.38923 10.7178 12.482 11.7886C9.58162 11.2304 7.20748 10.6463 6.61128 10.549C3.26527 9.9665 1.94968 17.8494 2.35272 18.8973C2.43333 19.1087 2.40443 19.019 2.47592 19.0844L2.01964 18.8882C1.44778 14.8395 3.33371 10.4578 5.97402 9.18323ZM18.952 12.7756C20.9667 12.8657 22.9854 12.7639 24.9809 12.4714C23.685 13.0068 21.4447 13.0144 18.952 12.7756Z" fill="#FEFEFE"/>
<path fill-rule="evenodd" clip-rule="evenodd" d="M18.0142 13.9057C18.0142 13.9057 21.5442 14.1856 24.9237 13.1453C28.5936 12.0304 32.7503 11.7689 33.7647 13.3156C38.3427 23.2685 2.61795 24.4715 5.43925 14.5323C6.11605 12.1491 13.4347 15.381 17.4818 14.0046C17.5837 13.9681 17.7389 14.0715 18.0142 13.9057Z" fill="#FEFEFE"/>
<path fill-rule="evenodd" clip-rule="evenodd" d="M11.3475 18.2966C11.6714 18.3565 12.0059 18.3189 12.3085 18.1886C12.6111 18.0584 12.8682 17.8413 13.0474 17.5649C13.2266 17.2885 13.3198 16.9651 13.3153 16.6357C13.3107 16.3063 13.2085 15.9857 13.0217 15.7144C12.8348 15.4431 12.5717 15.2332 12.2656 15.1115C11.9595 14.9897 11.6242 14.9615 11.302 15.0303C10.9799 15.0991 10.6854 15.262 10.4558 15.4982C10.2262 15.7344 10.0718 16.0335 10.0121 16.3575C9.97236 16.5725 9.97535 16.7932 10.0209 17.0071C10.0665 17.221 10.1538 17.4237 10.2779 17.6038C10.4019 17.7839 10.5602 17.9378 10.7437 18.0567C10.9273 18.1756 11.1324 18.2571 11.3475 18.2966Z" fill="#1494E3"/>
<path fill-rule="evenodd" clip-rule="evenodd" d="M5.41602 15.0312C5.41602 15.0312 5.41602 12.3088 9.71868 12.8441C14.0213 13.3795 18.5719 14.8791 28.362 12.8441C34.1172 11.5529 33.8966 15.1498 33.8966 15.1498C33.8966 15.1498 34.0746 17.6244 28.1019 19.7369C22.1293 21.8495 12.4031 21.6365 8.21297 18.8593C5.69586 17.5666 5.45708 15.8723 5.41602 15.0312Z" fill="#1EA3F5"/>
<path fill-rule="evenodd" clip-rule="evenodd" d="M25.6789 18.1187C25.8378 18.1481 26.0018 18.1298 26.1502 18.0661C26.2986 18.0024 26.4248 17.8961 26.5128 17.7606C26.6008 17.6252 26.6467 17.4667 26.6446 17.3051C26.6425 17.1436 26.5926 16.9864 26.5012 16.8532C26.4097 16.7201 26.2808 16.617 26.1308 16.5571C25.9808 16.4972 25.8164 16.4832 25.6584 16.5167C25.5004 16.5502 25.3558 16.6299 25.2431 16.7456C25.1303 16.8612 25.0544 17.0077 25.0249 17.1666C24.9862 17.3794 25.0333 17.599 25.1558 17.7774C25.2783 17.9557 25.4663 18.0784 25.6789 18.1187Z" fill="#061223"/>
<path fill-rule="evenodd" clip-rule="evenodd" d="M25.7944 17.4905C25.8299 17.4959 25.8663 17.4908 25.8989 17.4757C25.9315 17.4605 25.959 17.4361 25.9778 17.4055C25.9966 17.3748 26.0059 17.3393 26.0045 17.3033C26.0032 17.2674 25.9913 17.2327 25.9703 17.2035C25.9493 17.1743 25.9202 17.152 25.8865 17.1393C25.8529 17.1266 25.8162 17.1242 25.7812 17.1322C25.7461 17.1403 25.7143 17.1585 25.6896 17.1847C25.6649 17.2108 25.6484 17.2436 25.6423 17.2791C25.6382 17.3029 25.6389 17.3274 25.6443 17.351C25.6497 17.3747 25.6598 17.397 25.674 17.4167C25.6882 17.4363 25.7061 17.453 25.7268 17.4657C25.7474 17.4783 25.7704 17.4868 25.7944 17.4905Z" fill="#FEFEFE"/>
<path fill-rule="evenodd" clip-rule="evenodd" d="M12.7204 17.9361C12.8793 17.9652 13.0432 17.9467 13.1915 17.8827C13.3397 17.8188 13.4657 17.7123 13.5535 17.5768C13.6413 17.4412 13.6869 17.2827 13.6846 17.1212C13.6824 16.9598 13.6323 16.8026 13.5407 16.6696C13.4491 16.5366 13.3202 16.4337 13.1702 16.374C13.0201 16.3142 12.8558 16.3003 12.6978 16.334C12.5399 16.3676 12.3955 16.4473 12.2828 16.563C12.1702 16.6787 12.0944 16.8252 12.0649 16.984C12.0263 17.1971 12.0735 17.4168 12.1963 17.5952C12.3191 17.7736 12.5076 17.8961 12.7204 17.9361Z" fill="#061223"/>
<path fill-rule="evenodd" clip-rule="evenodd" d="M12.8363 17.3111C12.8832 17.3181 12.931 17.3066 12.9696 17.2791C13.0082 17.2515 13.0345 17.21 13.043 17.1633C13.0515 17.1166 13.0415 17.0685 13.0152 17.0291C12.9888 16.9897 12.9481 16.9621 12.9017 16.9521C12.8777 16.948 12.8532 16.9487 12.8295 16.9541C12.8057 16.9595 12.7833 16.9696 12.7635 16.9837C12.7437 16.9979 12.7269 17.0158 12.7141 17.0365C12.7013 17.0572 12.6927 17.0802 12.6888 17.1042C12.6813 17.1512 12.6926 17.1992 12.7202 17.2379C12.7478 17.2766 12.7895 17.3029 12.8363 17.3111Z" fill="#FEFEFE"/>
<path fill-rule="evenodd" clip-rule="evenodd" d="M5.48242 15.0768C5.48242 15.0768 5.48242 12.3544 9.78508 12.8898C14.0877 13.4251 18.6383 14.9232 28.4284 12.8898C28.6976 12.8289 28.9516 12.7803 29.1889 12.7377C22.5258 15.7019 11.5752 13.7643 10.2185 13.7415C6.03908 13.67 7.78508 18.6282 11.3547 20.2525C10.2674 19.9556 9.23005 19.4995 8.27634 18.8989C5.76075 17.6122 5.52349 15.9179 5.48242 15.0768Z" fill="#1494E3"/>
<path fill-rule="evenodd" clip-rule="evenodd" d="M5.41613 15.0312C5.41613 15.0312 5.41613 12.5566 9.14541 12.7909C7.9743 13.3004 6.80928 14.2144 6.92639 15.8327C7.06328 17.6912 9.09065 19.1787 11.2945 20.2175C10.206 19.9192 9.16762 19.4615 8.21309 18.8593C5.69293 17.568 5.45415 15.8737 5.41309 15.0327L5.41613 15.0312ZM29.1287 12.6966C34.096 11.8814 33.8967 15.1513 33.8967 15.1513C33.8967 15.1513 34.0747 17.6258 28.1021 19.7384L27.88 19.8144C29.6945 18.7498 31.8344 17.1407 31.8253 15.5179C31.8237 13.5909 30.5796 12.9551 29.1287 12.6966Z" fill="#A9ABAE"/>
<path fill-rule="evenodd" clip-rule="evenodd" d="M31.5221 4.80006C25.9921 0.304241 17.7837 -0.466862 11.5723 3.02363C10.2826 3.74759 8.06054 5.35215 7.12974 6.45329C6.77993 6.86394 7.2286 7.32325 7.4613 7.67002C11.1358 13.0921 19.4187 14.835 25.2316 11.9134C28.1442 10.4502 30.0788 8.22363 31.6453 5.41299C31.6679 5.37727 31.6848 5.33828 31.6955 5.2974V5.27458C31.7061 5.21983 31.7061 5.16355 31.6955 5.1088V5.09816C31.6833 5.0288 31.6552 4.96321 31.6134 4.90652C31.5881 4.87317 31.5579 4.84393 31.5237 4.81983L31.5221 4.80006ZM30.64 5.29131C27.9024 10.0061 23.6575 12.7925 18.0484 12.3727C14.094 12.0776 10.2826 10.1902 8.06054 6.84416C9.54039 5.42211 11.0126 4.29816 12.8894 3.38105C18.5199 0.638841 25.7183 1.47534 30.64 5.29131Z" fill="#061223"/>
<path fill-rule="evenodd" clip-rule="evenodd" d="M31.2444 5.17109C27.4604 1.93154 16.4916 -2.34678 7.46191 6.77869C11.2809 13.5361 25.0239 16.7924 31.2444 5.17109Z" fill="#0975E7"/>
<path fill-rule="evenodd" clip-rule="evenodd" d="M21.2292 1.33536C16.9068 1.03117 11.944 2.2479 7.46191 6.78174L7.47408 6.80304C7.96381 6.16577 13.5699 1.72167 21.176 1.4038L21.2292 1.33536Z" fill="#FEFEFE"/>
<path opacity="0.21" fill-rule="evenodd" clip-rule="evenodd" d="M5.41602 15.0312C5.41602 15.0312 5.41602 12.3088 9.71868 12.8441C14.0213 13.3795 18.5719 14.8791 28.362 12.8441C34.1172 11.5529 33.8966 15.1498 33.8966 15.1498C33.8966 15.1498 34.0746 17.6244 28.1019 19.7369C22.1293 21.8495 12.4031 21.6365 8.21297 18.8593C5.69586 17.5666 5.45708 15.8723 5.41602 15.0312Z" fill="#FEFEFE"/>
<path opacity="0.21" fill-rule="evenodd" clip-rule="evenodd" d="M10.5427 12.9566C11.7442 13.1346 12.9883 13.3612 14.38 13.5467L8.28568 18.9034L8.21268 18.8593C6.91229 18.1931 6.22028 17.4205 5.84766 16.7133L10.5427 12.9566ZM17.691 13.8463L10.2933 19.8813C10.9211 20.111 11.562 20.303 12.2127 20.4562L20.1214 13.8676C19.2575 13.8905 18.4484 13.8798 17.688 13.8463H17.691ZM26.9016 13.1285C27.3731 13.0433 27.8578 12.949 28.3556 12.8456C29.0693 12.6764 29.7988 12.5831 30.5321 12.5673L22.0347 20.9977C20.872 21.107 19.7045 21.1578 18.5366 21.1498L26.9016 13.1224V13.1285ZM33.183 13.4129L26.9199 20.114C27.3275 19.9984 27.7229 19.8737 28.1032 19.7384C34.0758 17.6258 33.8978 15.1513 33.8978 15.1513C33.9007 14.829 33.8395 14.5094 33.7179 14.211C33.5962 13.9126 33.4165 13.6413 33.1891 13.4129H33.183Z" fill="#FEFEFE"/>
<path d="M15.4905 29.606L20.2768 29.6486C21.2547 29.6562 21.2562 28.1353 20.2768 28.1277L15.4905 28.0851C14.511 28.076 14.511 29.5969 15.4905 29.606Z" fill="#006CCE"/>
<path d="M15.0207 28.3847L20.7408 28.5247C21.1317 28.5338 21.1317 27.9254 20.7408 27.9163L15.0207 27.7764C14.6298 27.7657 14.6298 28.3741 15.0207 28.3847Z" fill="#061223"/>
</g>
<defs>
<clipPath id="clip0_3336_21762">
<rect width="40" height="40.7605" fill="white"/>
</clipPath>
</defs>
</svg>
