<svg width="40" height="41" viewBox="0 0 40 41" fill="none" xmlns="http://www.w3.org/2000/svg">
<g clip-path="url(#clip0_3336_21608)">
<path fill-rule="evenodd" clip-rule="evenodd" d="M13.4783 3.98325C-1.27459 9.97108 -1.80235 30.0988 12.006 36.9718C25.1574 43.5118 40.2843 32.4334 37.8707 17.7749C36.0532 6.74371 24.4942 -2.07424e-05 13.9437 3.80226L13.5072 3.96652L13.4783 3.97869V3.98325ZM13.8752 4.91861C23.7551 1.21671 34.4182 6.8745 36.7026 17.1102C39.7444 30.7224 25.9315 42.003 13.1999 36.4076C-0.483716 30.3939 -0.442651 10.7026 13.8752 4.91861Z" fill="#061223"/>
<path d="M32.4718 33.2156C39.3273 26.3601 39.3273 15.2453 32.4718 8.38992C25.6164 1.53451 14.5016 1.53451 7.64621 8.38992C0.790806 15.2453 0.790806 26.3601 7.64621 33.2156C14.5016 40.071 25.6164 40.071 32.4718 33.2156Z" fill="#0975E7"/>
<path fill-rule="evenodd" clip-rule="evenodd" d="M17.3857 24.9582C18.2522 24.9331 19.0942 25.2476 19.7321 25.8347C20.37 26.4217 20.7533 27.2348 20.8001 28.1004C20.8245 28.5244 20.7637 28.949 20.6213 29.3492C20.4789 29.7493 20.2577 30.1169 19.9709 30.4302C19.6842 30.7435 19.3375 30.9962 18.9515 31.1733C18.5655 31.3505 18.1478 31.4485 17.7233 31.4616C16.857 31.4867 16.0152 31.1724 15.3774 30.5857C14.7395 29.9989 14.3561 29.1863 14.3089 28.3209C14.2847 27.8969 14.3457 27.4722 14.4881 27.0721C14.6306 26.6719 14.8517 26.3044 15.1384 25.991C15.4252 25.6776 15.7717 25.4248 16.1577 25.2474C16.5436 25.07 16.9611 24.9717 17.3857 24.9582Z" fill="#006CCE"/>
<path fill-rule="evenodd" clip-rule="evenodd" d="M9.65506 6.66155C8.46963 7.53267 7.39905 8.55011 6.46875 9.68969C10.5889 18.5916 30.3851 10.8927 12.6589 6.69197C12.5113 6.66307 11.138 6.64938 9.65506 6.66155Z" fill="#006CCE"/>
<path fill-rule="evenodd" clip-rule="evenodd" d="M0.810332 21.781C0.760142 26.7787 3.1936 32.0715 7.06585 35.2669C8.59669 36.5161 10.3193 37.5099 12.167 38.2099C13.3959 38.6859 13.3274 38.3832 13.4719 37.0646C14.1868 30.514 10.9761 24.3878 4.60957 22.0395C3.54444 21.6365 2.42355 21.4 1.28638 21.3384L1.26661 21.7947L0.810332 21.781ZM1.72288 22.295C3.18412 22.4528 4.59871 22.9028 5.88258 23.6182C11.1966 26.473 13.183 31.6927 12.5031 37.3566C10.7115 36.654 9.17383 35.822 7.64836 34.5612C4.12136 31.6486 1.83999 26.8654 1.72744 22.295H1.72288Z" fill="#061223"/>
<path fill-rule="evenodd" clip-rule="evenodd" d="M1.26696 21.7947C1.26696 21.7947 0.888253 33.7338 12.8837 37.9878C14.6008 27.4418 6.55517 22.0167 1.26696 21.7947Z" fill="#0975E7"/>
<path fill-rule="evenodd" clip-rule="evenodd" d="M2.25879 27.4373C3.52419 31.13 6.38959 35.6852 12.8839 37.9878C12.8839 37.9878 4.92495 34.0365 2.25879 27.4373Z" fill="#FEFEFE"/>
<path fill-rule="evenodd" clip-rule="evenodd" d="M37.529 17.3536C39.4955 26.9354 34.3488 35.4799 25.2689 38.7164L25.1488 38.7574C22.218 33.2669 22.7153 27.2898 26.799 22.4837C29.5153 19.2898 33.3206 17.3126 37.529 17.3567V17.3536ZM38.4416 16.7711C38.434 16.7298 38.4218 16.6895 38.405 16.651C38.3755 16.5932 38.3352 16.5416 38.2864 16.4989C38.2408 16.4626 38.1894 16.4343 38.1343 16.4152H38.1252H38.1024C38.0646 16.4055 38.0258 16.4004 37.9868 16.4C35.9035 16.2914 33.8237 16.6738 31.9153 17.5164C23.8058 21.0145 19.9108 30.4928 23.929 38.5993C24.5739 39.9012 24.4948 40.1354 25.6522 39.7217C35.2933 36.2206 40.7168 27.0084 38.4416 16.7711Z" fill="#061223"/>
<path fill-rule="evenodd" clip-rule="evenodd" d="M37.9408 16.8578C39.9606 25.0069 36.318 35.6076 24.9096 39.3764C18.3377 28.1749 28.0549 16.2631 37.9408 16.8578Z" fill="#0975E7"/>
<path fill-rule="evenodd" clip-rule="evenodd" d="M24.5188 38.6692C18.7484 27.6806 28.2633 16.2738 37.9408 16.8578C23.3157 18.5141 21.3796 32.3498 24.5188 38.6692Z" fill="#E6E7E8"/>
<path fill-rule="evenodd" clip-rule="evenodd" d="M28.3104 35.3156C28.4506 35.26 28.6042 35.2474 28.7516 35.2793C28.899 35.3113 29.0336 35.3863 29.1382 35.495C29.2428 35.6036 29.3128 35.7409 29.3392 35.8894C29.3657 36.0378 29.3473 36.1908 29.2866 36.3289C29.2258 36.4669 29.1254 36.5838 28.998 36.6646C28.8707 36.7454 28.7222 36.7866 28.5714 36.7828C28.4206 36.779 28.2744 36.7304 28.1513 36.6433C28.0282 36.5562 27.9337 36.4344 27.88 36.2935C27.8087 36.1067 27.8139 35.8992 27.8945 35.7162C27.9751 35.5332 28.1245 35.3892 28.3104 35.3156Z" fill="#229EF2"/>
<path fill-rule="evenodd" clip-rule="evenodd" d="M29.4828 34.5506C32.9307 31.6897 34.9809 28.8669 35.7307 24.4867C35.7585 24.3429 35.8372 24.214 35.9525 24.1236C36.0677 24.0332 36.2116 23.9874 36.3579 23.9946C36.5042 24.0018 36.6429 24.0616 36.7487 24.1629C36.8545 24.2641 36.9202 24.4002 36.9337 24.546L36.5626 26.7087C35.6409 30.0258 32.806 33.3703 30.2143 35.5133C30.0864 35.5859 29.9365 35.6097 29.7924 35.5803C29.6483 35.5509 29.5197 35.4703 29.4305 35.3534C29.3412 35.2365 29.2974 35.0912 29.307 34.9445C29.3166 34.7977 29.379 34.6594 29.4828 34.5551V34.5506Z" fill="#229EF2"/>
<path fill-rule="evenodd" clip-rule="evenodd" d="M6.13681 8.68135C14.0547 13.2197 24.2129 13.1376 32.5475 9.79465C34.4714 9.02355 34.2296 8.60834 36.0821 10.365C37.6395 11.8418 39.3079 16.2692 37.9984 17.6654C36.806 18.9429 29.1269 21.3536 27.2288 21.7825C19.2623 23.5832 9.02807 23.0327 1.67749 19.2973C0.293464 18.5931 2.0121 12.8015 2.83339 11.4129C3.70943 9.93762 4.19308 9.5726 5.51324 8.71633C5.55846 8.67759 5.60987 8.64674 5.66533 8.62507H5.67445C5.72935 8.60684 5.78696 8.5981 5.8448 8.59922H5.88434C5.95124 8.60549 6.0163 8.6246 6.07597 8.65549H6.08358H6.09422H6.10487L6.13681 8.68135ZM5.87673 9.73382C2.90031 11.7855 2.21133 15.0235 2.39689 18.4684C13.822 23.1498 26.3239 23.0737 37.2516 16.8973C37.6121 13.673 36.6159 12.0973 34.1733 10.2388C25.0478 14.0471 14.698 14.657 5.87673 9.73382Z" fill="#061223"/>
<path fill-rule="evenodd" clip-rule="evenodd" d="M5.85704 9.12549C5.85704 9.12549 18.1278 16.9217 34.2449 9.64412C38.8791 12.3468 37.7186 17.2289 37.7186 17.2289C37.7186 17.2289 21.3795 27.4981 1.89659 18.8259C1.32472 14.7772 3.21065 10.397 5.85704 9.12549Z" fill="#D9DDE1"/>
<path fill-rule="evenodd" clip-rule="evenodd" d="M5.85662 9.12549C5.85662 9.12549 8.27183 10.6555 12.3646 11.7278C9.46575 11.1681 7.09008 10.5916 6.49388 10.4943C3.14027 9.9118 1.83229 17.7947 2.22772 18.8411C2.30833 19.0525 2.27943 18.9643 2.35092 19.0281L1.89464 18.832C1.32278 14.7833 3.20871 10.4031 5.84902 9.12853L5.85662 9.12549ZM18.8346 12.7148C20.849 12.8073 22.8677 12.7085 24.8635 12.4198C23.5737 12.946 21.3243 12.9521 18.8346 12.7118V12.7148Z" fill="#FEFEFE"/>
<path fill-rule="evenodd" clip-rule="evenodd" d="M17.8965 13.8403C17.8965 13.8403 21.4266 14.1201 24.806 13.0798C28.479 11.9574 32.6342 11.6958 33.6471 13.2426C38.225 23.1954 2.49881 24.3985 5.3201 14.4593C5.99843 12.076 13.3155 15.308 17.3627 13.9331C17.4661 13.9057 17.6212 14.0091 17.8965 13.8403Z" fill="#FEFEFE"/>
<path fill-rule="evenodd" clip-rule="evenodd" d="M11.2306 18.2342C11.5545 18.2941 11.8889 18.2565 12.1915 18.1263C12.4941 17.996 12.7513 17.779 12.9305 17.5025C13.1097 17.2261 13.2029 16.9028 13.1983 16.5734C13.1937 16.244 13.0916 15.9233 12.9047 15.652C12.7179 15.3807 12.4548 15.1709 12.1487 15.0491C11.8426 14.9273 11.5072 14.8991 11.1851 14.9679C10.8629 15.0368 10.5684 15.1996 10.3388 15.4358C10.1092 15.6721 9.95484 15.9711 9.8952 16.2951C9.85522 16.5101 9.85806 16.7309 9.90357 16.9449C9.94908 17.1588 10.0364 17.3617 10.1604 17.5418C10.2845 17.722 10.4429 17.8759 10.6265 17.9947C10.8101 18.1135 11.0154 18.1949 11.2306 18.2342Z" fill="#1494E3"/>
<path fill-rule="evenodd" clip-rule="evenodd" d="M5.29883 14.9703C5.29883 14.9703 5.29883 12.2463 9.60301 12.7832C13.9072 13.3201 18.4562 14.8167 28.2464 12.7832C34 11.492 33.7794 15.0889 33.7794 15.0889C33.7794 15.0889 33.9574 17.5634 27.9848 19.6775C22.0121 21.7916 12.2874 21.5756 8.09883 18.7954C5.57868 17.5041 5.33989 15.8174 5.29883 14.9703Z" fill="#1EA3F5"/>
<path fill-rule="evenodd" clip-rule="evenodd" d="M12.6448 18.4486C12.8717 18.4909 13.1061 18.4648 13.3182 18.3738C13.5303 18.2828 13.7106 18.1309 13.8364 17.9374C13.9621 17.7438 14.0277 17.5174 14.0246 17.2866C14.0216 17.0558 13.9502 16.8311 13.8194 16.6409C13.6887 16.4507 13.5044 16.3036 13.29 16.2181C13.0756 16.1327 12.8407 16.1128 12.6149 16.1609C12.3892 16.209 12.1828 16.3231 12.0219 16.4885C11.861 16.654 11.7528 16.8635 11.711 17.0905C11.683 17.241 11.685 17.3955 11.7169 17.5452C11.7487 17.695 11.8097 17.8369 11.8964 17.9631C11.9832 18.0892 12.0939 18.197 12.2223 18.2803C12.3507 18.3636 12.4943 18.4208 12.6448 18.4486Z" fill="#061223"/>
<path fill-rule="evenodd" clip-rule="evenodd" d="M26.7996 18.1749C27.0265 18.2168 27.2606 18.1904 27.4725 18.0992C27.6844 18.008 27.8645 17.856 27.99 17.6625C28.1155 17.4689 28.1808 17.2425 28.1777 17.0119C28.1746 16.7812 28.1031 16.5566 27.9724 16.3666C27.8416 16.1765 27.6575 16.0295 27.4432 15.9441C27.2289 15.8587 26.9941 15.8387 26.7684 15.8868C26.5428 15.9348 26.3365 16.0486 26.1755 16.2139C26.0146 16.3791 25.9063 16.5884 25.8642 16.8152C25.8363 16.9659 25.8384 17.1207 25.8703 17.2706C25.9022 17.4205 25.9633 17.5626 26.0502 17.6889C26.137 17.8152 26.2479 17.9231 26.3765 18.0065C26.5051 18.0899 26.6489 18.1471 26.7996 18.1749Z" fill="#061223"/>
<path fill-rule="evenodd" clip-rule="evenodd" d="M26.9644 17.2837C26.9981 17.2899 27.0326 17.2894 27.0661 17.2822C27.0995 17.2751 27.1313 17.2614 27.1594 17.242C27.1876 17.2226 27.2117 17.1978 27.2303 17.1691C27.2489 17.1403 27.2616 17.1082 27.2678 17.0746C27.274 17.0409 27.2735 17.0064 27.2664 16.9729C27.2592 16.9394 27.2455 16.9077 27.2261 16.8795C27.2067 16.8514 27.1819 16.8273 27.1532 16.8087C27.1245 16.7901 27.0924 16.7773 27.0587 16.7711C26.9907 16.7586 26.9206 16.7737 26.8637 16.8129C26.8068 16.8521 26.7678 16.9123 26.7553 16.9803C26.7428 17.0482 26.7578 17.1184 26.797 17.1753C26.8362 17.2322 26.8964 17.2712 26.9644 17.2837Z" fill="#FEFEFE"/>
<path fill-rule="evenodd" clip-rule="evenodd" d="M12.8286 17.5088C12.8792 17.5178 12.9312 17.5117 12.9783 17.4911C13.0253 17.4706 13.0653 17.4366 13.0931 17.3935C13.1208 17.3503 13.1352 17.2999 13.1344 17.2486C13.1335 17.1972 13.1175 17.1473 13.0884 17.105C13.0592 17.0628 13.0182 17.0301 12.9706 17.0111C12.9229 16.9921 12.8706 16.9877 12.8204 16.9983C12.7702 17.009 12.7242 17.0342 12.6884 17.0709C12.6525 17.1077 12.6283 17.1542 12.6188 17.2046C12.6124 17.2384 12.6128 17.2731 12.6199 17.3067C12.627 17.3403 12.6408 17.3722 12.6603 17.4005C12.6798 17.4287 12.7047 17.4529 12.7336 17.4715C12.7625 17.4901 12.7948 17.5027 12.8286 17.5088Z" fill="#FEFEFE"/>
<path fill-rule="evenodd" clip-rule="evenodd" d="M5.36621 15.0145C5.36621 15.0145 5.36621 12.292 9.67039 12.8274C13.9746 13.3627 18.5221 14.8608 28.3137 12.8274C28.5814 12.7681 28.8354 12.7179 29.0742 12.6753C22.4156 15.6441 11.4651 13.7065 10.1084 13.6882C5.92895 13.6167 7.67496 18.5749 11.2445 20.1992C10.1574 19.9021 9.12007 19.4459 8.16621 18.8456C5.64606 17.5498 5.40728 15.8555 5.36621 15.0145Z" fill="#1494E3"/>
<path fill-rule="evenodd" clip-rule="evenodd" d="M5.29883 14.9704C5.29883 14.9704 5.29883 12.4944 9.02811 12.7286C7.85852 13.232 6.69198 14.1521 6.81062 15.7658C6.94598 17.6229 8.97335 19.1118 11.1772 20.1491C10.09 19.8519 9.05269 19.3958 8.09883 18.7955C5.57868 17.5042 5.33989 15.8175 5.29883 14.9704ZM29.0114 12.6343C33.9802 11.8206 33.7794 15.089 33.7794 15.089C33.7794 15.089 33.9574 17.5636 27.9848 19.6776L27.7642 19.7537C29.5772 18.689 31.711 17.0784 31.7095 15.4556C31.7064 13.5362 30.4639 12.8944 29.0114 12.6343Z" fill="#A9ABAE"/>
<path fill-rule="evenodd" clip-rule="evenodd" d="M31.4065 4.7377C25.8749 0.243404 17.6665 -0.52922 11.4551 2.96127C10.1654 3.68523 7.95704 5.28979 7.01255 6.39093C6.66274 6.80158 7.11141 7.26089 7.34411 7.60766C11.0202 13.0343 19.3015 14.7788 25.1145 11.8571C28.027 10.3879 29.9616 8.16127 31.5297 5.35063C31.5511 5.31452 31.5675 5.27563 31.5783 5.23504V5.21223C31.589 5.15748 31.589 5.10119 31.5783 5.04645V5.0358C31.566 4.96675 31.5384 4.9013 31.4977 4.84416C31.4726 4.8112 31.4429 4.782 31.4095 4.75747L31.4065 4.7377ZM30.5228 5.22896C27.7852 9.94378 23.5403 12.7301 17.9312 12.3103C13.9783 12.0153 10.1654 10.1248 7.94335 6.78789C9.42928 5.36584 10.8954 4.24188 12.7753 3.32477C18.4027 0.576484 25.6011 1.41451 30.5228 5.22896Z" fill="#061223"/>
<path fill-rule="evenodd" clip-rule="evenodd" d="M31.1272 5.11326C27.3432 1.87219 16.3744 -2.40462 7.34473 6.71934C11.1637 13.4676 24.9082 16.73 31.1272 5.11326Z" fill="#0975E7"/>
<path fill-rule="evenodd" clip-rule="evenodd" d="M21.112 1.27298C16.7896 0.968795 11.8345 2.18553 7.34473 6.71937L7.35689 6.74066C7.84663 6.10492 13.4527 1.65929 21.0588 1.34142L21.112 1.27298Z" fill="#FEFEFE"/>
<path fill-rule="evenodd" clip-rule="evenodd" d="M17.8493 25.0388C19.2987 24.9779 20.5352 26.3848 20.6098 28.1794C20.6843 29.9741 19.571 31.4814 18.1215 31.5422C16.6721 31.603 15.4371 30.1962 15.3611 28.4C15.285 26.6038 16.3999 25.095 17.8493 25.0388Z" fill="#061223"/>
<path fill-rule="evenodd" clip-rule="evenodd" d="M16.2295 25.8312C17.3976 25.8692 18.663 25.8525 19.5542 25.7156C19.3356 25.4913 19.0725 25.3151 18.7818 25.1984C18.4912 25.0818 18.1793 25.0271 17.8663 25.038C17.5532 25.0489 17.2459 25.125 16.9641 25.2616C16.6822 25.3982 16.432 25.5922 16.2295 25.8312Z" fill="#D2D3D5"/>
<path d="M25.0375 16.3027C26.1873 15.8129 27.328 15.3049 28.4535 14.7589C28.8489 14.5658 28.5022 13.9757 28.1083 14.1673C26.9828 14.7148 25.8421 15.2213 24.6908 15.7125C24.2877 15.8844 24.636 16.473 25.0375 16.3027Z" fill="#061223"/>
<path d="M15.0734 15.9696C13.9236 15.4845 12.7753 14.978 11.6574 14.4305C11.262 14.2388 10.9152 14.829 11.3122 15.0221C12.4361 15.5681 13.5783 16.0761 14.7282 16.5658C15.1282 16.7377 15.478 16.1476 15.0734 15.9757V15.9696Z" fill="#061223"/>
<path opacity="0.21" fill-rule="evenodd" clip-rule="evenodd" d="M5.29883 14.9703C5.29883 14.9703 5.29883 12.2463 9.60301 12.7832C13.9072 13.3201 18.4562 14.8167 28.2464 12.7832C34 11.492 33.7794 15.0889 33.7794 15.0889C33.7794 15.0889 33.9574 17.5634 27.9848 19.6775C22.0121 21.7916 12.2874 21.5756 8.09883 18.7954C5.57868 17.5041 5.33989 15.8174 5.29883 14.9703Z" fill="#FEFEFE"/>
<path opacity="0.21" fill-rule="evenodd" clip-rule="evenodd" d="M10.4258 12.8958C11.6274 13.0722 12.8715 13.3003 14.2631 13.4844L8.16881 18.841L8.09885 18.7954C6.79999 18.1307 6.10645 17.3581 5.73535 16.6494L10.4258 12.8958ZM17.5741 13.7855L10.1764 19.819C10.8046 20.0489 11.4461 20.2408 12.0973 20.3939L20.0061 13.8053C19.1422 13.8281 18.3331 13.819 17.5726 13.7855H17.5741ZM26.7848 13.0676C27.2578 12.9809 27.7414 12.8866 28.2403 12.7832C28.9544 12.6137 29.6845 12.5204 30.4182 12.5049L21.9209 20.9353C20.7582 21.0455 19.5907 21.0962 18.4228 21.0874L26.7878 13.0615L26.7848 13.0676ZM33.0662 13.3505L26.7954 20.0517C27.203 19.9361 27.5985 19.8113 27.9787 19.6775C33.9513 17.5634 33.7734 15.0889 33.7734 15.0889C33.7772 14.7672 33.7173 14.4479 33.5969 14.1495C33.4766 13.8511 33.2982 13.5795 33.0722 13.3505H33.0662Z" fill="#FEFEFE"/>
</g>
<defs>
<clipPath id="clip0_3336_21608">
<rect width="40" height="40.7605" fill="white"/>
</clipPath>
</defs>
</svg>
