<svg width="40" height="41" viewBox="0 0 40 41" fill="none" xmlns="http://www.w3.org/2000/svg">
<g clip-path="url(#clip0_3336_21642)">
<path fill-rule="evenodd" clip-rule="evenodd" d="M16.7114 3.26694C1.29548 6.49279 -2.75624 25.9848 9.46734 35.1042C21.1099 43.7901 37.7806 35.67 38.0225 20.9886C38.1898 9.92854 28.1365 1.33538 17.1936 3.1772L16.7373 3.25933L16.7084 3.26694H16.7114ZM16.932 4.24641C27.1966 2.38481 36.5761 9.76732 36.9959 20.1293C37.5555 33.9103 22.1305 42.4533 10.7282 34.7666C-1.52125 26.5034 1.97685 7.35211 16.932 4.24641Z" fill="#061223"/>
<path d="M32.4248 33.065C39.2036 26.2862 39.2036 15.2956 32.4248 8.51681C25.646 1.73802 14.6554 1.73802 7.87662 8.51681C1.09783 15.2956 1.09783 26.2862 7.87662 33.065C14.6554 39.8438 25.646 39.8438 32.4248 33.065Z" fill="#0975E7"/>
<path fill-rule="evenodd" clip-rule="evenodd" d="M10.6465 21.7019C10.61 23.9833 10.7514 25.9407 12.0427 26.8046C15.1894 28.9126 22.8229 27.0434 22.5476 25.4464C21.8343 21.3749 10.6465 21.3111 10.6465 21.7019Z" fill="#006CCE"/>
<path fill-rule="evenodd" clip-rule="evenodd" d="M18.634 28.2388C18.4698 28.3559 16.4804 28.3605 15.9846 28.4396C15.5542 28.5065 15.1283 28.1689 14.92 28.2982C13.3337 29.3035 17.8873 31.7141 18.9671 28.6115C19.0112 28.502 18.7147 28.181 18.634 28.2388Z" fill="#006CCE"/>
<path fill-rule="evenodd" clip-rule="evenodd" d="M2.79438 20.4942C2.78256 21.2114 2.81456 21.9285 2.8902 22.6418C7.30085 18.3011 25.3632 18.5064 32.0507 20.3893C38.4142 22.1809 26.1602 10.3832 7.24914 17.6684C5.77994 18.2387 3.98222 19.419 2.79438 20.4942Z" fill="#006CCE"/>
<path fill-rule="evenodd" clip-rule="evenodd" d="M17.6543 19.1452C23.233 18.9932 28.909 19.5027 32.0528 20.3894C37.011 21.7856 30.652 14.9247 18.652 15.2837C18.6094 15.4068 18.5668 15.5331 18.5273 15.6639C18.1744 16.8289 17.887 17.9924 17.6543 19.1452Z" fill="#006CCE"/>
<path fill-rule="evenodd" clip-rule="evenodd" d="M33.0766 6.23573C28.2538 1.10265 20.3146 -0.745262 13.764 1.84942C12.4043 2.38782 10.0196 3.66538 8.95491 4.619C8.55796 4.97489 8.93666 5.4844 9.11917 5.85094C11.9983 11.6563 19.8827 14.4669 25.9663 12.3772C29.0081 11.3293 31.2074 9.40531 33.1146 6.86082C33.1413 6.8283 33.1628 6.79188 33.1785 6.75284V6.74219C33.1981 6.69025 33.2074 6.63496 33.2059 6.57945V6.55512C33.2028 6.48544 33.1841 6.41735 33.1511 6.35588C33.1293 6.32082 33.1038 6.28819 33.0751 6.25854L33.0766 6.23573ZM32.1458 6.60075C28.8317 10.8593 24.307 13.022 18.8667 11.8646C15.0325 11.057 11.5481 8.69656 9.81423 5.13154C11.4538 3.93459 13.0446 3.02964 15.0066 2.38021C20.888 0.436487 27.8325 2.21443 32.1458 6.60683V6.60075Z" fill="#061223"/>
<path fill-rule="evenodd" clip-rule="evenodd" d="M32.7527 6.57337C29.4766 2.88972 19.2956 -2.75439 9.23633 4.98553C12.0804 12.1049 25.1131 17.1285 32.7527 6.57337Z" fill="#0975E7"/>
<path fill-rule="evenodd" clip-rule="evenodd" d="M2.58593 21.4357C2.05209 17.9528 2.01863 12.2175 5.54563 10.181C10.0612 7.56653 28.9494 5.67756 33.2734 7.6882C37.2171 9.52242 39.8605 17.4068 37.065 21.4084C36.5312 22.1688 34.6042 20.8593 34.4414 20.8C25.9319 17.6654 11.6962 18.1141 3.37072 21.8646L3.32357 21.8859H3.3038C3.25491 21.9036 3.20364 21.9139 3.15171 21.9163H3.11825C3.07194 21.9147 3.02599 21.9076 2.98137 21.895H2.9692H2.94487H2.9327H2.92205H2.91141H2.89924C2.82964 21.8618 2.76833 21.8135 2.71977 21.7536V21.746V21.7384V21.7308C2.69768 21.699 2.67931 21.6648 2.66502 21.6289C2.66181 21.622 2.65926 21.6149 2.65741 21.6076C2.64379 21.5656 2.63461 21.5222 2.63004 21.4783L2.58593 21.4357ZM3.54411 20.6068C4.25656 20.2732 4.99327 19.9941 5.74791 19.7719C15.0255 16.7757 27.2399 16.8137 36.3548 20.4532C37.4422 18.1825 37.4726 16.2114 36.5692 13.6669C35.5897 10.9065 34.0141 8.66919 31.0163 8.21292C25.3236 7.32623 10.0567 8.36501 5.27947 11.6669C3.31901 14.7407 3.07414 17.1209 3.55019 20.6068H3.54411Z" fill="#061223"/>
<path fill-rule="evenodd" clip-rule="evenodd" d="M3.12516 21.3886C3.12516 21.3886 1.76699 15.0571 4.8879 11.2943C8.78752 7.66696 29.9358 6.52932 33.0248 8.16126C36.1138 9.7932 39.5434 16.3879 36.6081 21.127C26.4453 16.2829 9.26813 18.2358 3.12516 21.3886Z" fill="#E6E7E8"/>
<path fill-rule="evenodd" clip-rule="evenodd" d="M2.84425 18.8334C2.76364 16.6525 3.04197 13.5239 4.88836 11.2943C7.56973 8.79998 18.4138 7.48287 25.9271 7.4342C17.2473 7.50873 7.6184 9.88592 5.56669 11.381C3.43741 12.9323 2.94768 18.8334 2.94768 18.8334H2.84425Z" fill="#FEFEFE"/>
<path fill-rule="evenodd" clip-rule="evenodd" d="M9.47368 11.5012C11.5665 10.2936 15.5497 8.86238 20.0349 8.66922C24.4288 8.47454 29.3125 9.47378 32.403 11.8449C34.9885 13.8221 34.9885 15.7886 34.4714 16.7924C33.8524 17.9863 31.8417 18.1688 30.2874 17.8145C27.3855 16.9947 16.1763 16.7179 11.1573 17.5574C4.15961 18.8913 4.86683 14.1658 9.47368 11.5012Z" fill="#1EA3F5"/>
<path fill-rule="evenodd" clip-rule="evenodd" d="M9.47418 11.5011C10.9084 10.6737 13.2324 9.74143 15.9913 9.17261C14.9066 9.5267 13.8527 9.96873 12.84 10.4943C8.68483 12.6722 6.81106 15.7369 10.3426 16.6236C11.6065 16.9399 21.1609 16.2144 25.4286 16.7848C28.9267 17.2532 32.4795 18.1977 33.8772 14.4274C33.9928 14.1125 34.1814 14.0213 34.3685 14.0988C34.6242 14.604 34.7502 15.1648 34.735 15.7308C34.5966 16.2829 34.259 16.9277 33.6004 17.5939C32.6985 18.0426 31.3784 18.0593 30.2833 17.8099C27.3814 16.9901 16.1723 16.7133 11.1533 17.5528C4.16011 18.8912 4.86734 14.1658 9.47418 11.5011Z" fill="#1494E3"/>
<path fill-rule="evenodd" clip-rule="evenodd" d="M9.4737 11.5012C10.165 11.1103 10.8826 10.7678 11.6212 10.4761C10.1992 11.4905 7.61363 13.5955 7.65013 15.4799C7.73834 17.2092 10.4425 17.1833 12.365 17.3841C11.93 17.4342 11.5239 17.4905 11.1482 17.5529C4.15964 18.8913 4.86686 14.1658 9.4737 11.5012Z" fill="#A9ABAE"/>
<path fill-rule="evenodd" clip-rule="evenodd" d="M26.4941 9.2395C28.7329 9.75661 30.8074 10.6083 32.4029 11.8403C34.9884 13.8174 34.9884 15.784 34.4713 16.7878C33.8523 17.9817 31.8417 18.1642 30.2873 17.8098C30.1976 17.7855 30.1002 17.7597 29.9953 17.7353C36.558 16.1597 31.5253 11.2197 26.4941 9.2395Z" fill="#BDBFC1"/>
<path fill-rule="evenodd" clip-rule="evenodd" d="M14.8103 28.5688C16.4833 28.9202 17.2726 28.9323 18.9 28.3863C18.9311 28.369 18.9583 28.3455 18.98 28.3172C19.0017 28.289 19.0174 28.2567 19.0262 28.2221C19.0349 28.1876 19.0365 28.1517 19.0309 28.1165C19.0253 28.0814 19.0126 28.0478 18.9935 28.0177C18.9744 27.9876 18.9494 27.9618 18.92 27.9417C18.8906 27.9217 18.8574 27.9078 18.8224 27.901C18.7875 27.8942 18.7515 27.8947 18.7167 27.9023C18.682 27.9099 18.6491 27.9245 18.6202 27.9452C17.2377 28.3848 16.4164 28.3726 15.0095 28.0852C14.9457 28.0604 14.8747 28.0617 14.8118 28.0886C14.7489 28.1156 14.6991 28.1661 14.673 28.2294C14.647 28.2927 14.6467 28.3637 14.6724 28.4271C14.6981 28.4906 14.7475 28.5414 14.8103 28.5688Z" fill="#061223"/>
<path fill-rule="evenodd" clip-rule="evenodd" d="M1.25052 18.3529C0.319722 23.2061 1.76003 28.7848 4.96155 32.5749C6.23072 34.0602 7.7314 35.3308 9.40565 36.3377C10.5174 37.0175 10.5053 36.7103 10.8764 35.4525C12.7258 29.2061 10.6817 22.6768 4.90071 19.273C3.93587 18.6932 2.88726 18.2658 1.79197 18.0061L1.69159 18.4472L1.25052 18.3529ZM2.05204 19.0114C3.44664 19.4234 4.74429 20.1113 5.86801 21.0342C10.5357 24.7483 11.5441 30.1764 9.88626 35.5666C8.26345 34.5643 6.91288 33.4875 5.649 31.9924C2.73797 28.5369 1.35851 23.4814 2.05204 19.0114Z" fill="#061223"/>
<path fill-rule="evenodd" clip-rule="evenodd" d="M1.69105 18.4471C1.69105 18.4471 -0.780433 29.9954 10.1428 36.2494C13.6682 26.289 6.79827 19.5939 1.69105 18.4471Z" fill="#0975E7"/>
<path fill-rule="evenodd" clip-rule="evenodd" d="M38.0227 20.0289C38.2478 29.7004 31.7337 37.1042 22.3299 38.654L22.2067 38.6738C20.3223 32.8153 21.8524 27.0845 26.6797 23.127C29.8843 20.4989 33.936 19.2396 38.0227 20.0289ZM39.0113 19.6198C39.0117 19.5783 39.0066 19.5368 38.9961 19.4966V19.486V19.4768C38.9782 19.4148 38.9482 19.3569 38.9079 19.3065V19.2974C38.8681 19.2532 38.8207 19.2167 38.768 19.1894H38.7588H38.7497C38.7148 19.1735 38.678 19.1622 38.6402 19.1559C36.6321 18.6823 34.5407 18.6881 32.5353 19.1727C23.9923 21.1103 18.5307 29.6578 21.0128 38.248C21.4113 39.6289 21.2942 39.8419 22.4912 39.6441C32.5231 37.9909 39.422 29.9833 39.0113 19.6198Z" fill="#061223"/>
<path fill-rule="evenodd" clip-rule="evenodd" d="M12.0155 12.7407C10.7836 12.362 9.01934 16.3726 12.9783 15.0631C14.2041 14.657 13.3053 13.7369 12.8262 12.9217C12.7532 12.7757 12.0657 12.7833 12.0155 12.7407Z" fill="#1494E3"/>
<path fill-rule="evenodd" clip-rule="evenodd" d="M1.66406 24.1111C2.24353 27.9271 4.22984 32.8639 10.1432 36.2495C10.1432 36.2495 3.09524 31.0023 1.66406 24.1111Z" fill="#FEFEFE"/>
<path fill-rule="evenodd" clip-rule="evenodd" d="M26.7347 13.0327C28.0092 12.8335 29.1803 17.0571 25.451 15.194C24.2951 14.616 25.3157 13.8343 25.8997 13.0951C26.0077 12.9628 26.683 13.0692 26.7347 13.0327Z" fill="#1494E3"/>
<path fill-rule="evenodd" clip-rule="evenodd" d="M38.5091 19.6198C39.0384 27.9042 33.627 37.5772 21.8627 39.2395C17.4414 27.1772 28.9958 17.2973 38.5091 19.6198Z" fill="#0975E7"/>
<path fill-rule="evenodd" clip-rule="evenodd" d="M26.4199 15.1544C26.6389 15.1783 26.86 15.1366 27.0552 15.0346C27.2505 14.9326 27.4111 14.7749 27.5165 14.5816C27.622 14.3882 27.6677 14.1678 27.6477 13.9484C27.6278 13.7291 27.5431 13.5206 27.4044 13.3494C27.2658 13.1782 27.0794 13.0521 26.869 12.987C26.6585 12.9219 26.4335 12.9208 26.2224 12.9839C26.0113 13.0469 25.8237 13.1712 25.6834 13.341C25.5431 13.5108 25.4564 13.7185 25.4343 13.9377C25.4049 14.2295 25.492 14.5211 25.6766 14.7489C25.8612 14.9768 26.1283 15.1226 26.4199 15.1544Z" fill="#061223"/>
<path fill-rule="evenodd" clip-rule="evenodd" d="M26.2611 14.5384C26.3449 14.5473 26.4294 14.5311 26.5039 14.4919C26.5785 14.4528 26.6398 14.3924 26.68 14.3184C26.7202 14.2444 26.7376 14.1602 26.73 14.0763C26.7224 13.9924 26.69 13.9127 26.6371 13.8472C26.5841 13.7817 26.5129 13.7334 26.4325 13.7084C26.3521 13.6833 26.2661 13.6827 26.1853 13.7065C26.1045 13.7304 26.0327 13.7776 25.9787 13.8423C25.9248 13.907 25.8913 13.9862 25.8824 14.07C25.8763 14.1257 25.8813 14.182 25.897 14.2357C25.9128 14.2894 25.939 14.3395 25.9742 14.3831C26.0094 14.4266 26.0529 14.4628 26.1021 14.4894C26.1514 14.5161 26.2054 14.5328 26.2611 14.5384Z" fill="#FEFEFE"/>
<path fill-rule="evenodd" clip-rule="evenodd" d="M21.6074 38.4791C17.9298 26.7681 29.2013 17.346 38.5093 19.6198C23.9876 18.6525 19.6667 31.7749 21.6074 38.4791Z" fill="#E6E7E8"/>
<path fill-rule="evenodd" clip-rule="evenodd" d="M25.8871 35.8813C26.0318 35.8534 26.1815 35.8689 26.3173 35.9261C26.4531 35.9832 26.569 36.0792 26.6502 36.2021C26.7314 36.3251 26.7744 36.4693 26.7737 36.6166C26.773 36.764 26.7286 36.9078 26.6462 37.0299C26.5638 37.152 26.447 37.247 26.3107 37.3028C26.1743 37.3586 26.0245 37.3727 25.8801 37.3434C25.7357 37.3141 25.6033 37.2426 25.4995 37.138C25.3957 37.0334 25.3252 36.9004 25.297 36.7558C25.2782 36.6597 25.2786 36.5607 25.2981 36.4647C25.3176 36.3687 25.3559 36.2774 25.4107 36.1962C25.4655 36.115 25.5358 36.0453 25.6176 35.9913C25.6993 35.9373 25.7909 35.8999 25.8871 35.8813Z" fill="#229EF2"/>
<path fill-rule="evenodd" clip-rule="evenodd" d="M12.1675 14.9171C12.3864 14.9407 12.6075 14.8988 12.8025 14.7966C12.9976 14.6944 13.1579 14.5365 13.2632 14.3431C13.3684 14.1496 13.4139 13.9293 13.3937 13.71C13.3736 13.4907 13.2887 13.2823 13.15 13.1113C13.0113 12.9403 12.8248 12.8143 12.6144 12.7494C12.404 12.6844 12.179 12.6835 11.968 12.7466C11.757 12.8097 11.5695 12.934 11.4293 13.1038C11.2891 13.2736 11.2025 13.4813 11.1804 13.7004C11.151 13.9924 11.2383 14.2842 11.4232 14.5122C11.6081 14.7401 11.8757 14.8857 12.1675 14.9171Z" fill="#061223"/>
<path fill-rule="evenodd" clip-rule="evenodd" d="M12.5608 14.3772C12.6445 14.386 12.729 14.3699 12.8036 14.3307C12.8781 14.2915 12.9394 14.2311 12.9796 14.1572C13.0199 14.0832 13.0373 13.9989 13.0296 13.915C13.022 13.8312 12.9897 13.7514 12.9367 13.686C12.8838 13.6205 12.8126 13.5721 12.7322 13.5471C12.6518 13.5221 12.5657 13.5214 12.485 13.5453C12.4042 13.5691 12.3323 13.6164 12.2784 13.6811C12.2245 13.7458 12.191 13.825 12.1821 13.9087C12.1762 13.9644 12.1813 14.0206 12.1971 14.0743C12.213 14.1279 12.2392 14.1779 12.2744 14.2214C12.3095 14.2649 12.3529 14.3011 12.4021 14.3278C12.4512 14.3545 12.5051 14.3713 12.5608 14.3772Z" fill="#FEFEFE"/>
<path fill-rule="evenodd" clip-rule="evenodd" d="M27.1652 35.343C31.0223 33.1665 33.509 30.7802 35.0162 26.6464C35.0567 26.4974 35.1534 26.3699 35.2859 26.2908C35.4185 26.2117 35.5766 26.1871 35.727 26.2221C35.8773 26.2572 36.0082 26.3492 36.0921 26.4789C36.1759 26.6085 36.2063 26.7656 36.1766 26.9171L35.4375 28.9567C33.9576 32.0213 30.6086 34.7757 27.7097 36.4091C27.5685 36.4809 27.4046 36.4937 27.254 36.4446C27.1034 36.3956 26.9785 36.2887 26.9067 36.1475C26.8349 36.0064 26.8221 35.8424 26.8712 35.6918C26.9202 35.5412 27.0271 35.4163 27.1683 35.3445L27.1652 35.343Z" fill="#229EF2"/>
<path fill-rule="evenodd" clip-rule="evenodd" d="M23.4508 1.47988C19.2561 0.608393 14.231 1.14223 9.23633 4.98558L9.24545 5.00687C9.80971 4.4487 15.8949 0.839572 23.3899 1.53919L23.4508 1.47988Z" fill="#FEFEFE"/>
<path fill-rule="evenodd" clip-rule="evenodd" d="M5.96302 16.0578C5.42918 14.7057 6.95922 12.7604 8.13184 12.079L9.47329 11.5011C7.0885 13.1224 6.63526 13.4342 5.96302 16.0578Z" fill="#FEFEFE"/>
<path opacity="0.23" fill-rule="evenodd" clip-rule="evenodd" d="M9.47498 11.5027C11.5662 10.2936 15.5495 8.86392 20.0362 8.66925C24.4286 8.47609 29.3138 9.47533 32.4027 11.8449C34.9883 13.8221 34.9883 15.7886 34.4712 16.794C33.8537 17.9879 31.8415 18.1628 30.2871 17.816C27.3853 16.9947 16.1761 16.7179 11.1571 17.5575C4.15939 18.8928 4.86662 14.1673 9.47498 11.5027Z" fill="#FEFEFE"/>
<path opacity="0.23" fill-rule="evenodd" clip-rule="evenodd" d="M15.9697 9.17721C16.6206 9.04337 17.2944 8.9293 17.9864 8.84109L8.66932 17.7825C7.67768 17.743 6.97654 17.5057 6.54004 17.1346L15.9697 9.17721ZM23.1895 8.72094L13.7933 17.238C14.4457 17.1863 15.1362 17.1453 15.8541 17.1133L25.3629 9.00079C24.6465 8.87303 23.9195 8.78025 23.1895 8.7179V8.72094ZM29.7598 10.2996C30.5988 10.6631 31.3976 11.1132 32.1431 11.6426L26.3636 17.27C25.3674 17.1939 24.2648 17.1346 23.1104 17.0966L29.7598 10.2996Z" fill="#FEFEFE"/>
<path fill-rule="evenodd" clip-rule="evenodd" d="M29.9014 10.368C31.8786 11.2806 36.3516 13.7992 34.6162 16.7011C34.0641 17.6137 32.966 17.8813 31.9713 17.9665C33.4573 17.7323 34.5721 17.2061 34.5569 15.5878C34.0504 13.162 31.9729 11.5102 29.9014 10.368Z" fill="#FEFEFE"/>
<path fill-rule="evenodd" clip-rule="evenodd" d="M10.6992 21.5969L23.1129 21.749C23.1129 21.749 22.9608 25.6319 22.0665 26.2372C21.1722 26.8426 13.5114 27.8798 12.1897 26.2235C10.868 24.5673 10.9243 23.206 10.6992 21.5969Z" fill="#061223"/>
<path fill-rule="evenodd" clip-rule="evenodd" d="M22.3755 25.8555C22.3056 26.0041 22.2013 26.1339 22.0713 26.2342C21.1739 26.8426 13.5161 27.8768 12.1945 26.2206C11.9477 25.9167 11.7293 25.5909 11.542 25.2472C11.6393 24.9247 11.764 24.6844 11.9283 24.578C12.5367 24.1886 21.1024 24.4487 21.9359 24.7605C22.2264 24.8609 22.345 25.3111 22.3755 25.8555Z" fill="#061223"/>
<path fill-rule="evenodd" clip-rule="evenodd" d="M10.6992 21.5969L23.1129 21.749C23.1129 21.749 22.9608 25.6319 22.0665 26.2372C21.3502 26.7209 16.3266 27.4798 13.6559 26.9232C14.8133 25.6486 18.3844 24.5049 20.4057 25.5969C23.2817 27.1483 22.0665 23.0281 21.9266 23.0981C19.595 24.3148 13.7608 24.8395 12.3448 23.5376C11.5844 22.838 11.1281 22.6251 10.8148 22.5688C10.7798 22.2448 10.7448 21.9239 10.6992 21.5969Z" fill="#07203D"/>
<path fill-rule="evenodd" clip-rule="evenodd" d="M10.8916 21.7567L23.1228 21.8008C22.9859 22.456 22.7666 23.0912 22.4703 23.6913C21.8361 24.87 12.8429 24.4122 12.008 24.1233C11.173 23.8343 11.0665 22.5263 10.8916 21.7567Z" fill="#EBECEC"/>
<path fill-rule="evenodd" clip-rule="evenodd" d="M20.5038 21.7917L23.1228 21.8008C23.0208 22.2597 22.8856 22.7106 22.7182 23.1499C19.3266 23.235 14.5889 23.0982 11.1851 23.0677C11.0452 22.6221 10.9768 22.1278 10.8916 21.7567L20.5038 21.7917Z" fill="#D6D6D6"/>
<path fill-rule="evenodd" clip-rule="evenodd" d="M11.542 25.2472C11.6393 24.9247 11.764 24.6844 11.9283 24.578C12.5367 24.1886 21.1024 24.4487 21.9359 24.7605C22.2264 24.8685 22.345 25.3187 22.3755 25.8571C22.3056 26.0057 22.2013 26.1355 22.0713 26.2358C21.1739 26.8441 13.5161 27.8784 12.1945 26.2221C11.9476 25.9178 11.7292 25.5914 11.542 25.2472Z" fill="#EBECEC"/>
<path fill-rule="evenodd" clip-rule="evenodd" d="M22.3059 25.3171V25.3339V25.3476V25.3552V25.3765V25.3932V25.4145V25.4236V25.4358V25.4525V25.4677V25.5012V25.5194V25.5422V25.5879V25.6046V25.6578V25.705V25.7293V25.8038V25.8555C22.236 26.0041 22.1317 26.134 22.0017 26.2342C21.1211 26.8289 13.7325 27.8388 12.207 26.3103C15.1409 26.4365 19.1059 26.7225 22.3059 25.3171Z" fill="#D6D6D6"/>
<path fill-rule="evenodd" clip-rule="evenodd" d="M10.8871 21.3871L23.1365 21.4723C23.2026 21.4793 23.2637 21.5106 23.3082 21.56C23.3526 21.6094 23.3772 21.6735 23.3772 21.7399C23.3772 21.8064 23.3526 21.8705 23.3082 21.9199C23.2637 21.9693 23.2026 22.0006 23.1365 22.0076L10.8871 21.9224C10.821 21.9154 10.7599 21.8842 10.7155 21.8347C10.6711 21.7853 10.6465 21.7212 10.6465 21.6548C10.6465 21.5883 10.6711 21.5242 10.7155 21.4748C10.7599 21.4254 10.821 21.3941 10.8871 21.3871Z" fill="#006CCE"/>
</g>
<defs>
<clipPath id="clip0_3336_21642">
<rect width="40" height="40.7605" fill="white"/>
</clipPath>
</defs>
</svg>
