<svg width="40" height="41" viewBox="0 0 40 41" fill="none" xmlns="http://www.w3.org/2000/svg">
<g clip-path="url(#clip0_3336_21717)">
<path fill-rule="evenodd" clip-rule="evenodd" d="M16.5782 3.07988C1.19267 6.41677 -2.71911 25.9377 9.57138 34.9689C21.2748 43.5696 37.8877 35.3308 38.0124 20.6419C38.1113 9.58179 27.9851 1.06468 17.0664 2.98711L16.6102 3.07228L16.5797 3.07988H16.5782ZM16.8064 4.05783C27.0725 2.12931 36.5022 9.43882 36.9904 19.7962C37.6489 33.5727 22.2847 42.2267 10.8307 34.6221C-1.48413 26.4487 1.88469 7.27152 16.8124 4.05783H16.8064Z" fill="#061223"/>
<path d="M32.4248 32.8542C39.2036 26.0754 39.2036 15.0848 32.4248 8.30599C25.646 1.52721 14.6554 1.52721 7.87662 8.30599C1.09783 15.0848 1.09783 26.0754 7.87662 32.8542C14.6554 39.6329 25.646 39.6329 32.4248 32.8542Z" fill="#0975E7"/>
<path fill-rule="evenodd" clip-rule="evenodd" d="M12.0151 22.4608C11.6516 22.3467 11.4888 22.2418 11.32 22.2616C10.8196 22.3118 10.9869 23.0783 11.209 24.3908C11.5831 26.587 18.3055 26.2159 19.9694 26.0806C24.9763 25.6882 23.793 22 23.717 22.0152C20.158 22.7346 16.1519 22.8684 12.593 22.5064C12.5717 22.4988 12.0272 22.4639 12.0151 22.4608Z" fill="#0D7DC9"/>
<path fill-rule="evenodd" clip-rule="evenodd" d="M18.8444 27.4601C18.6802 27.5788 16.5631 27.1559 16.0718 27.235C12.3167 27.8571 17.9881 31.3415 19.1821 27.8297C19.2201 27.7202 18.9235 27.4023 18.8444 27.4601Z" fill="#006CCE"/>
<path fill-rule="evenodd" clip-rule="evenodd" d="M2.79063 20.4061C2.78469 21.1237 2.82329 21.8409 2.90622 22.5537C7.28037 18.1826 25.3488 18.251 32.0484 20.0913C38.4226 21.8373 26.0773 10.1278 7.22562 17.5499C5.75337 18.1293 3.97086 19.3233 2.79063 20.4061Z" fill="#006CCE"/>
<path fill-rule="evenodd" clip-rule="evenodd" d="M17.6426 18.9521C23.2213 18.7543 28.8973 19.2289 32.0502 20.0912C37.019 21.46 30.6114 14.6372 18.6129 15.0828C18.5703 15.2076 18.5308 15.3338 18.4912 15.4631C18.146 16.6311 17.8662 17.7946 17.6426 18.9521Z" fill="#006CCE"/>
<path fill-rule="evenodd" clip-rule="evenodd" d="M33.2655 7.53917C28.6374 2.22359 20.7712 0.0836613 14.1278 2.43347C12.7499 2.92168 10.3256 4.10647 9.21986 5.01902C8.81074 5.35971 9.16967 5.8829 9.3385 6.25705C12.0016 12.1673 19.772 15.2685 25.9332 13.4053C29.0176 12.4715 31.2807 10.6297 33.2807 8.15819C33.3082 8.12652 33.3313 8.09121 33.3491 8.05324C33.3695 8.00188 33.3803 7.94726 33.3811 7.89203V7.88138C33.381 7.8119 33.3654 7.74331 33.3355 7.68062C33.3163 7.64451 33.2923 7.61124 33.264 7.58176L33.2655 7.53917ZM32.321 7.86921C28.8533 11.9939 24.251 13.9924 18.8594 12.6373C15.0571 11.6821 11.6609 9.19545 10.0609 5.56807C11.7431 4.43195 13.3674 3.59089 15.3507 3.01142C21.3005 1.28518 28.172 3.31864 32.321 7.86921Z" fill="#061223"/>
<path fill-rule="evenodd" clip-rule="evenodd" d="M11.3047 22.2646C11.7899 22.838 18.6172 23.489 19.4112 23.311C19.4248 23.311 22.4013 23.5894 23.6347 22.003C21.8157 21.3947 12.31 21.7901 11.3047 22.2646Z" fill="#FEFEFE"/>
<path fill-rule="evenodd" clip-rule="evenodd" d="M32.9311 7.85706C29.7919 4.06086 19.8269 -1.96195 9.48926 5.39927C12.0672 12.6236 24.9052 18.1232 32.9311 7.85706Z" fill="#0975E7"/>
<path fill-rule="evenodd" clip-rule="evenodd" d="M2.59664 21.3506C2.03694 17.8707 1.96241 12.1369 5.47572 10.07C9.96546 7.42662 28.8385 5.40228 33.1776 7.38251C37.132 9.18783 39.8347 17.0525 37.0681 21.0707C36.5388 21.8388 34.6027 20.5399 34.44 20.4806C25.9077 17.4084 11.6765 17.9589 3.37838 21.7703L3.33124 21.7916H3.31146C3.26257 21.8093 3.21131 21.8196 3.15937 21.8221H3.11831C3.072 21.8217 3.02595 21.815 2.98143 21.8023H2.96926L2.94492 21.7947H2.93276H2.92059H2.90994H2.8993C2.82955 21.761 2.76783 21.7128 2.71831 21.6532V21.6456V21.638C2.69572 21.6058 2.67684 21.5711 2.66203 21.5346C2.66203 21.5346 2.66203 21.5224 2.66203 21.5148C2.64665 21.4732 2.63693 21.4297 2.63314 21.3856L2.59664 21.3506ZM3.54873 20.5156C4.25594 20.1729 4.98869 19.8856 5.74036 19.6563C15.0027 16.5932 27.2096 16.5445 36.3502 20.1125C37.4225 17.8312 37.4377 15.8631 36.516 13.3247C35.5183 10.5871 33.9305 8.35742 30.9252 7.91483C25.2263 7.07377 9.96698 8.21901 5.22173 11.565C3.27496 14.6494 3.04226 17.0342 3.54873 20.5156Z" fill="#061223"/>
<path opacity="0.15" fill-rule="evenodd" clip-rule="evenodd" d="M32.9307 7.85702C32.5138 7.36134 32.0598 6.89815 31.5725 6.47147C25.387 5.75816 17.1649 6.92775 11.3535 8.55968C12.1388 9.47876 13.0437 10.2885 14.044 10.9673C18.8592 10.5977 25.2471 10.8867 30.187 10.6464C31.2092 9.82901 32.1303 8.89261 32.9307 7.85702Z" fill="#0E4380"/>
<path fill-rule="evenodd" clip-rule="evenodd" d="M3.12875 21.2928C3.12875 21.2928 1.72647 14.9794 4.81848 11.1924C8.69225 7.54218 29.8329 6.24789 32.931 7.85701C36.0291 9.46614 39.5059 16.0365 36.6101 20.7954C26.4124 16.0258 9.25042 18.0988 3.12875 21.2928Z" fill="#E6E7E8"/>
<path fill-rule="evenodd" clip-rule="evenodd" d="M3.12831 21.2927C2.92661 20.2655 2.82121 19.2217 2.81348 18.1749C4.31158 18.7574 6.33743 19.346 8.23249 18.879C16.0956 16.9368 24.2021 17.2988 32.1108 18.622C37.1101 19.4676 38.8256 11.3536 29.2515 7.2395C30.999 7.33532 32.3177 7.54368 32.9306 7.85699C36.0287 9.46612 39.5055 16.0365 36.6097 20.7954C26.412 16.0258 9.24998 18.0988 3.12831 21.2927Z" fill="#D4D4D3"/>
<path fill-rule="evenodd" clip-rule="evenodd" d="M2.82905 18.7453C2.73323 16.5658 2.98114 13.4342 4.8184 11.1924C7.48304 8.67834 18.318 7.28366 25.8298 7.18176C17.15 7.31864 7.53931 9.76731 5.49825 11.2745C3.3857 12.8396 2.93247 18.7407 2.93247 18.7407L2.82905 18.7453Z" fill="#FEFEFE"/>
<path fill-rule="evenodd" clip-rule="evenodd" d="M9.40715 11.3657C11.4893 10.149 15.4634 8.68435 19.9471 8.45317C24.3395 8.22808 29.2246 9.19234 32.3364 11.5406C34.9341 13.5041 34.9539 15.4646 34.4414 16.4729C33.833 17.6714 31.8224 17.8691 30.2649 17.5254C27.357 16.7254 16.1463 16.5292 11.1334 17.4053C4.14631 18.7954 4.81247 14.0653 9.40715 11.3657Z" fill="#1EA3F5"/>
<path fill-rule="evenodd" clip-rule="evenodd" d="M24.3646 16.0319C17.9342 10.2175 24.0209 9.53765 24.535 12.4335C26.8985 9.3232 30.9274 10.6312 24.3646 16.0319Z" fill="#1388D1"/>
<path fill-rule="evenodd" clip-rule="evenodd" d="M24.3646 16.0319C17.9342 10.2175 24.0209 9.53765 24.535 12.4335C21.7608 9.39164 23.5099 14.3954 24.2749 15.457C24.3763 15.5927 24.4616 15.7397 24.5289 15.8951L24.3646 16.0319Z" fill="#1388D1"/>
<path fill-rule="evenodd" clip-rule="evenodd" d="M13.4109 16.3027C7.46722 10.8106 13.0687 10.1977 13.5524 12.9278C15.7151 10.0076 19.4307 11.2548 13.4109 16.3027Z" fill="#1388D1"/>
<path fill-rule="evenodd" clip-rule="evenodd" d="M13.2152 16.1216C7.69427 10.8958 12.8836 10.2524 13.5194 12.7848C13.1087 12.654 10.038 11.5741 13.2152 16.1216Z" fill="#1388D1"/>
<path fill-rule="evenodd" clip-rule="evenodd" d="M9.40715 11.3657C10.8338 10.5292 13.1486 9.58017 15.906 8.99158C14.8245 9.351 13.7741 9.79811 12.7653 10.3285C8.62692 12.5429 6.77293 15.6212 10.3167 16.4821C11.5821 16.7863 21.1303 15.9954 25.4026 16.5353C28.9098 16.9779 32.4627 17.9041 33.8345 14.1171C33.9486 13.8007 34.1387 13.7094 34.3227 13.7855C34.5825 14.2885 34.7126 14.8484 34.7014 15.4144C34.5676 15.968 34.233 16.6144 33.5805 17.2851C32.6817 17.7414 31.3615 17.7672 30.2649 17.5254C27.357 16.7254 16.1463 16.5292 11.1334 17.4053C4.14631 18.7954 4.81247 14.0653 9.40715 11.3657Z" fill="#1494E3"/>
<path fill-rule="evenodd" clip-rule="evenodd" d="M9.40716 11.3657C10.0957 10.9701 10.8107 10.6225 11.5471 10.3254C10.1311 11.3505 7.5623 13.4737 7.60488 15.3612C7.70526 17.0905 10.411 17.0448 12.341 17.2319C11.906 17.2851 11.4999 17.3429 11.1243 17.4083C4.14633 18.7954 4.81249 14.0654 9.40716 11.3657Z" fill="#A9ABAE"/>
<path fill-rule="evenodd" clip-rule="evenodd" d="M26.4102 8.98254C28.652 9.48445 30.7326 10.327 32.3417 11.5407C34.9394 13.5042 34.9592 15.4647 34.4467 16.473C33.8383 17.6715 31.8276 17.8692 30.2702 17.5255C30.1805 17.5012 30.0832 17.4768 29.9782 17.454C36.5227 15.8297 31.455 10.9263 26.4102 8.98254Z" fill="#BDBFC1"/>
<path fill-rule="evenodd" clip-rule="evenodd" d="M11.3213 22.2616L23.6407 22.0031C23.7697 22.5202 23.7475 23.0635 23.5768 23.5685C23.4062 24.0734 23.0942 24.5188 22.6779 24.8517C21.4612 25.8418 12.9259 26.0913 12.1106 25.0403C11.481 24.2388 11.3867 23.6289 11.3213 22.2616Z" fill="#061223"/>
<path fill-rule="evenodd" clip-rule="evenodd" d="M11.3213 22.2616L23.6407 22.0031C23.7697 22.5202 23.7475 23.0635 23.5768 23.5685C23.4062 24.0734 23.0942 24.5188 22.6779 24.8517C21.6954 25.6563 15.8795 25.9711 13.2909 25.4996C13.2909 25.1437 13.2437 24.8411 13.1084 24.7589C11.6118 23.857 11.1874 21.5726 14.0817 23.3901C15.1707 24.073 21.1829 23.9346 22.4468 23.1194C23.4384 22.4837 24.8802 26.146 14.4148 25.1666C13.776 25.1072 13.3776 25.2472 13.2103 25.4875C12.6506 25.3795 12.2521 25.2335 12.1061 25.0434C11.481 24.2388 11.3867 23.6289 11.3213 22.2616Z" fill="#07203D"/>
<path fill-rule="evenodd" clip-rule="evenodd" d="M12.3193 22.2418L22.8136 22.0212C22.5307 22.4942 22.0821 22.9809 21.7277 23.1543C21.1954 23.4159 14.8562 23.3064 13.8098 23.2243C13.1482 23.1726 12.6205 22.6311 12.3239 22.2418H12.3193ZM22.1657 25.1072C22.0015 24.8699 21.6015 24.4577 20.7969 24.4136C19.6577 24.3513 14.6463 24.5444 14.257 24.7604C13.9504 24.9704 13.6784 25.227 13.4509 25.5209C15.7916 25.9087 20.4425 25.7034 22.1581 25.1072H22.1657Z" fill="#EBECEC"/>
<path fill-rule="evenodd" clip-rule="evenodd" d="M12.3193 22.2418L22.8136 22.0212C22.6853 22.2336 22.5377 22.4337 22.3726 22.619C21.3414 22.549 20.0547 22.5931 18.6935 22.6372C16.6661 22.7026 14.4729 22.7665 12.7619 22.7224C12.5995 22.5765 12.4514 22.4156 12.3193 22.2418ZM21.9923 25.1634C19.5756 25.3749 16.0273 25.1863 13.5908 25.3596C13.5406 25.4174 13.492 25.4722 13.4494 25.5254C15.7155 25.895 20.146 25.7171 21.9847 25.1634H21.9923Z" fill="#D6D6D6"/>
<path fill-rule="evenodd" clip-rule="evenodd" d="M14.8822 27.1969C16.5369 26.7863 17.3309 26.7407 18.9765 27.235C19.037 27.2701 19.0811 27.3277 19.099 27.3953C19.117 27.4629 19.1074 27.5349 19.0723 27.5954C19.0372 27.6559 18.9795 27.7 18.9119 27.718C18.8443 27.7359 18.7724 27.7263 18.7118 27.6912C17.3156 27.3019 16.4959 27.3429 15.0982 27.6775C15.0352 27.7062 14.9635 27.7087 14.8988 27.6844C14.834 27.6602 14.7815 27.6112 14.7529 27.5483C14.7243 27.4853 14.7218 27.4136 14.746 27.3489C14.7703 27.2841 14.8193 27.2317 14.8822 27.203V27.1969Z" fill="#061223"/>
<path fill-rule="evenodd" clip-rule="evenodd" d="M1.23217 18.2768C0.336354 23.1437 1.81772 28.7042 5.04662 32.473C6.32632 33.9472 7.83575 35.2049 9.51658 36.1977C10.6345 36.8699 10.6177 36.5627 10.9812 35.3034C12.7865 29.0433 10.6953 22.5277 4.88845 19.1665C3.91936 18.5935 2.86772 18.1734 1.77057 17.9209L1.67324 18.368L1.23065 18.2768H1.23217ZM2.03978 18.9323C3.43628 19.3336 4.73804 20.0111 5.86791 20.9247C10.563 24.6053 11.6109 30.0258 9.99415 35.4281C8.36373 34.438 7.00556 33.3703 5.73559 31.8844C2.78959 28.4502 1.37666 23.4038 2.03978 18.9323Z" fill="#061223"/>
<path fill-rule="evenodd" clip-rule="evenodd" d="M1.67286 18.368C1.67286 18.368 -0.714972 29.9346 10.2523 36.108C13.7078 26.1232 6.78921 19.4783 1.67286 18.368Z" fill="#0975E7"/>
<path fill-rule="evenodd" clip-rule="evenodd" d="M38.0137 19.6882C38.3088 29.3536 31.8494 36.8061 22.4563 38.4259L22.3331 38.4456C20.4061 32.6008 21.8951 26.8593 26.6935 22.8669C29.8875 20.216 33.9209 18.9293 38.0137 19.6882ZM39.0008 19.2745C39.0011 19.233 38.996 19.1916 38.9856 19.1513V19.1407C38.9665 19.0793 38.936 19.022 38.8958 18.9719V18.9627C38.8551 18.919 38.8073 18.8825 38.7544 18.8548C38.7187 18.8397 38.6814 18.8285 38.6434 18.8213C36.6316 18.3638 34.5406 18.3846 32.5384 18.8821C24.0472 20.911 18.6479 29.4935 21.1924 38.0715C21.6015 39.4479 21.4844 39.6624 22.6814 39.4555C32.6449 37.6897 39.4875 29.6335 39.0008 19.2745Z" fill="#061223"/>
<path fill-rule="evenodd" clip-rule="evenodd" d="M1.68652 24.0304C2.29489 27.8418 4.31618 32.765 10.2538 36.1064C10.2538 36.108 3.16789 30.9125 1.68652 24.0304Z" fill="#FEFEFE"/>
<path fill-rule="evenodd" clip-rule="evenodd" d="M38.5009 19.2746C39.0879 27.5559 33.748 37.2624 21.9959 39.0084C17.491 26.9841 28.9693 17.0221 38.5009 19.2746Z" fill="#0975E7"/>
<path fill-rule="evenodd" clip-rule="evenodd" d="M21.7342 38.2525C17.973 26.5703 29.1699 17.0692 38.5007 19.2745C23.9715 18.4137 19.7449 31.5665 21.7342 38.2525Z" fill="#E6E7E8"/>
<path fill-rule="evenodd" clip-rule="evenodd" d="M26.2904 37.0905C26.4352 37.0614 26.5682 36.9899 26.6724 36.8852C26.7767 36.7806 26.8475 36.6473 26.876 36.5023C26.9045 36.3574 26.8893 36.2072 26.8325 36.0709C26.7756 35.9345 26.6795 35.8181 26.5565 35.7363C26.4334 35.6546 26.2889 35.6112 26.1412 35.6116C25.9934 35.612 25.8491 35.6562 25.7265 35.7387C25.6039 35.8211 25.5085 35.9381 25.4524 36.0747C25.3963 36.2114 25.382 36.3616 25.4113 36.5064C25.4509 36.7002 25.5656 36.8704 25.7304 36.9798C25.8951 37.0893 26.0964 37.129 26.2904 37.0905Z" fill="#229EF2"/>
<path fill-rule="evenodd" clip-rule="evenodd" d="M27.2687 35.0799C31.1106 32.8761 33.579 30.4715 35.0573 26.3271C35.0975 26.1785 35.1935 26.0512 35.3253 25.9718C35.4571 25.8923 35.6145 25.867 35.7646 25.901C35.9147 25.9349 36.0458 26.0257 36.1306 26.1541C36.2153 26.2826 36.2471 26.4388 36.2193 26.5902L35.4923 28.6343C34.0338 31.7096 30.7045 34.4883 27.8178 36.1385C27.6766 36.2113 27.5123 36.225 27.361 36.1767C27.2097 36.1283 27.0838 36.0218 27.011 35.8807C26.9381 35.7395 26.9244 35.5752 26.9728 35.4239C27.0211 35.2725 27.1276 35.1466 27.2687 35.0738V35.0799Z" fill="#229EF2"/>
<path fill-rule="evenodd" clip-rule="evenodd" d="M23.8223 2.42282C19.6626 1.3886 14.6223 1.74449 9.48926 5.39924V5.42206C10.0733 4.88517 16.2877 1.50267 23.7509 2.48061L23.8223 2.42282Z" fill="#FEFEFE"/>
<path fill-rule="evenodd" clip-rule="evenodd" d="M24.1823 16.0684C18.199 10.1627 23.7564 9.59087 24.2751 12.4852C26.3876 9.42965 30.0956 10.7985 24.1823 16.0684Z" fill="#CC334F"/>
<path fill-rule="evenodd" clip-rule="evenodd" d="M24.1823 16.0684C18.199 10.1627 23.7564 9.59087 24.2751 12.4852C21.6895 9.40684 23.3717 14.4228 24.0895 15.495C24.1851 15.6325 24.2657 15.7799 24.3298 15.9346L24.1823 16.0684Z" fill="#B03344"/>
<path fill-rule="evenodd" clip-rule="evenodd" d="M13.2854 16.3285C7.65799 10.7726 12.8838 10.2342 13.3736 12.9567C15.3614 10.0791 18.8458 11.3704 13.2854 16.3285Z" fill="#CC334F"/>
<path fill-rule="evenodd" clip-rule="evenodd" d="M13.0996 16.143C7.86916 10.8563 12.7117 10.2844 13.3429 12.8183C12.9551 12.6844 10.0638 11.5681 13.0996 16.143Z" fill="#B03344"/>
<path fill-rule="evenodd" clip-rule="evenodd" d="M5.93175 15.9482C5.38422 14.6007 6.90057 12.6433 8.07015 11.9543L9.40704 11.3657C7.03441 13.0037 6.5827 13.3201 5.93175 15.9482Z" fill="#FEFEFE"/>
<path opacity="0.23" fill-rule="evenodd" clip-rule="evenodd" d="M9.40715 11.3657C11.4893 10.149 15.4634 8.68435 19.9471 8.45317C24.3395 8.22808 29.2246 9.19234 32.3364 11.5406C34.9341 13.5041 34.9539 15.4646 34.4414 16.4729C33.833 17.6714 31.8224 17.8691 30.2649 17.5254C27.357 16.7254 16.1463 16.5292 11.1334 17.4053C4.14631 18.7954 4.81247 14.0653 9.40715 11.3657Z" fill="#FEFEFE"/>
<path opacity="0.23" fill-rule="evenodd" clip-rule="evenodd" d="M15.8891 8.99464C16.537 8.85624 17.2108 8.73761 17.9028 8.64483L8.65262 17.6517C7.66098 17.6197 6.95832 17.387 6.5127 17.019L15.8891 8.99464ZM23.1043 8.49426L13.769 17.0813C14.4214 17.0251 15.1135 16.9794 15.8298 16.9429L25.2808 8.76042C24.5629 8.63875 23.8344 8.55054 23.1043 8.49426ZM29.6853 10.0258C30.5276 10.3827 31.33 10.8272 32.0792 11.3521L26.3408 17.0159C25.3446 16.9475 24.242 16.8973 23.0876 16.8638L29.6853 10.0258Z" fill="#FEFEFE"/>
<path fill-rule="evenodd" clip-rule="evenodd" d="M29.8252 10.0867C31.8115 10.984 36.2997 13.4707 34.5811 16.3863C34.0351 17.3095 32.9385 17.5772 31.9453 17.6699C33.4298 17.4236 34.5415 16.8851 34.5187 15.2715C33.994 12.8502 31.9043 11.2137 29.8252 10.0867Z" fill="#FEFEFE"/>
</g>
<defs>
<clipPath id="clip0_3336_21717">
<rect width="40" height="40.7605" fill="white"/>
</clipPath>
</defs>
</svg>
