<svg width="40" height="41" viewBox="0 0 40 41" fill="none" xmlns="http://www.w3.org/2000/svg">
<g clip-path="url(#clip0_3336_21686)">
<path fill-rule="evenodd" clip-rule="evenodd" d="M13.5957 4.12011C-1.16324 10.1079 -1.68491 30.2357 12.1235 37.1102C25.2733 43.6501 40.4018 32.5718 37.9881 17.9133C36.163 6.88208 24.6041 0.142921 14.0596 3.94672L13.6246 4.10642L13.5957 4.11859V4.12011ZM13.9927 5.05547C23.8786 1.35357 34.5356 7.01136 36.82 17.2471C39.8619 30.8593 26.0474 42.1414 13.3174 36.546C-0.366283 30.5308 -0.326739 10.8395 13.9927 5.05547Z" fill="#061223"/>
<path d="M32.589 33.3526C39.4444 26.4972 39.4444 15.3824 32.589 8.527C25.7336 1.67159 14.6188 1.67159 7.7634 8.527C0.907994 15.3824 0.907992 26.4972 7.7634 33.3526C14.6188 40.208 25.7336 40.208 32.589 33.3526Z" fill="#0975E7"/>
<path fill-rule="evenodd" clip-rule="evenodd" d="M9.77204 6.79849C8.58394 7.66911 7.51077 8.68657 6.57812 9.82663C10.7059 18.7285 30.5006 11.0297 12.7758 6.84412C12.6238 6.80153 11.2549 6.78632 9.77204 6.79849Z" fill="#006CCE"/>
<path fill-rule="evenodd" clip-rule="evenodd" d="M0.926587 21.9179C0.874876 26.9156 3.31442 32.2084 7.18362 35.4039C8.71362 36.6535 10.4358 37.6473 12.2832 38.3468C13.5121 38.8229 13.4437 38.5202 13.5882 37.2016C14.303 30.6525 11.0924 24.5248 4.72583 22.1765C3.66065 21.7736 2.53979 21.5371 1.40263 21.4753L1.38438 21.9316L0.928108 21.9164L0.926587 21.9179ZM1.83913 22.432C3.30022 22.5905 4.71467 23.0405 5.99883 23.7552C11.3129 26.6115 13.2992 31.8312 12.6194 37.4936C10.8232 36.7879 9.28552 35.959 7.76005 34.6997C4.23914 31.7871 1.95777 27.0023 1.84522 22.432H1.83913Z" fill="#061223"/>
<path fill-rule="evenodd" clip-rule="evenodd" d="M1.38415 21.9331C1.38415 21.9331 1.00544 33.8707 13.0009 38.1263C14.7149 27.5787 6.67236 22.1536 1.38415 21.9331Z" fill="#0975E7"/>
<path fill-rule="evenodd" clip-rule="evenodd" d="M2.37598 27.5741C3.63986 31.2684 6.50678 35.822 13.0011 38.1262C13.0011 38.1262 5.04214 34.1733 2.37598 27.5741Z" fill="#FEFEFE"/>
<path fill-rule="evenodd" clip-rule="evenodd" d="M37.6461 17.4905C39.6126 27.0723 34.4643 35.6167 25.386 38.8517L25.2659 38.8928C22.3351 33.4023 22.8248 27.4251 26.9161 22.619C29.6324 19.4251 33.4362 17.4479 37.6461 17.4935V17.4905ZM38.5586 16.9065C38.5513 16.8656 38.5391 16.8258 38.5221 16.7878C38.4943 16.7294 38.4544 16.6776 38.405 16.6358H38.3974C38.3519 16.5994 38.3004 16.5711 38.2453 16.5521H38.2225H38.2134C38.1756 16.5429 38.1367 16.5383 38.0978 16.5384C36.0146 16.43 33.9351 16.8118 32.0263 17.6532C23.9168 21.1513 20.0202 30.6312 24.04 38.7376C24.6849 40.038 24.6058 40.2722 25.7632 39.8601C35.4104 36.3574 40.8339 27.1468 38.5586 16.908V16.9065Z" fill="#061223"/>
<path fill-rule="evenodd" clip-rule="evenodd" d="M38.058 16.9947C40.0777 25.1437 36.4352 35.7414 25.0268 39.5133C18.4549 28.3118 28.172 16.4 38.058 16.9947Z" fill="#0975E7"/>
<path fill-rule="evenodd" clip-rule="evenodd" d="M24.6389 38.8061C18.8595 27.8175 28.3804 16.4122 38.0579 16.9947C23.4313 18.651 21.4967 32.4882 24.6389 38.8061Z" fill="#E6E7E8"/>
<path fill-rule="evenodd" clip-rule="evenodd" d="M28.4276 35.4525C28.5678 35.397 28.7214 35.3844 28.8688 35.4163C29.0162 35.4482 29.1508 35.5233 29.2554 35.6319C29.36 35.7405 29.43 35.8778 29.4564 36.0263C29.4828 36.1748 29.4645 36.3278 29.4037 36.4658C29.343 36.6039 29.2426 36.7207 29.1152 36.8016C28.9879 36.8824 28.8394 36.9235 28.6886 36.9197C28.5378 36.9159 28.3916 36.8674 28.2685 36.7803C28.1454 36.6932 28.0509 36.5714 27.9972 36.4305C27.9259 36.2436 27.9311 36.0362 28.0117 35.8532C28.0923 35.6701 28.2417 35.5262 28.4276 35.4525Z" fill="#229EF2"/>
<path fill-rule="evenodd" clip-rule="evenodd" d="M29.6 34.6875C33.0479 31.8267 35.092 29.0038 35.8479 24.619C35.8399 24.5323 35.8508 24.4448 35.8796 24.3626C35.9084 24.2803 35.9546 24.2053 36.0149 24.1424C36.0753 24.0796 36.1484 24.0304 36.2294 23.9983C36.3105 23.9662 36.3974 23.9518 36.4844 23.9562C36.5715 23.9606 36.6565 23.9837 36.7339 24.0238C36.8112 24.0639 36.8791 24.1202 36.9328 24.1888C36.9865 24.2574 37.0248 24.3368 37.0452 24.4215C37.0656 24.5062 37.0675 24.5943 37.0509 24.6799L36.6798 26.8426C35.7581 30.1597 32.9231 33.5027 30.3315 35.6457C30.2036 35.7183 30.0537 35.7421 29.9096 35.7127C29.7655 35.6833 29.6369 35.6027 29.5477 35.4858C29.4584 35.3689 29.4145 35.2236 29.4242 35.0768C29.4338 34.9301 29.4962 34.7917 29.6 34.6875Z" fill="#229EF2"/>
<path fill-rule="evenodd" clip-rule="evenodd" d="M6.25397 8.82135C14.1718 13.3567 24.3346 13.2746 32.6677 9.93162C34.5916 9.16051 34.3498 8.74683 36.2023 10.5035C37.7582 11.9788 39.4281 16.4061 38.1186 17.8039C36.9262 19.0814 29.2471 21.4936 27.349 21.9225C19.3825 23.7233 9.14827 23.1712 1.7977 19.4358C0.416713 18.7362 2.12926 12.9445 2.95664 11.559C3.83116 10.0822 4.31633 9.71717 5.63648 8.86242C5.68126 8.82269 5.73277 8.79128 5.78858 8.76964C5.84365 8.75216 5.90113 8.74344 5.95892 8.74378H5.99846C6.06492 8.74983 6.12953 8.76896 6.18858 8.80006H6.19618H6.20683H6.21747L6.25397 8.82135ZM5.9939 9.8723C3.01747 11.924 2.3285 15.162 2.51253 18.6069C13.9391 23.2852 26.441 23.2092 37.3688 17.0343C37.7293 13.8099 36.7331 12.2343 34.2905 10.3757C25.165 14.1856 14.8152 14.794 5.9939 9.86926V9.8723Z" fill="#061223"/>
<path fill-rule="evenodd" clip-rule="evenodd" d="M5.97423 9.25928C5.97423 9.25928 18.251 17.0555 34.3621 9.77791C38.9963 12.4836 37.8404 17.3673 37.8404 17.3673C37.8404 17.3673 21.4967 27.6349 2.01377 18.9627C1.44191 14.914 3.32784 10.5338 5.97423 9.25928Z" fill="#D9DDE1"/>
<path fill-rule="evenodd" clip-rule="evenodd" d="M5.97402 9.25928C5.97402 9.25928 8.38923 10.7984 12.482 11.8631C9.58162 11.3049 7.20748 10.7285 6.61128 10.6251C3.26527 10.0425 1.94968 17.9254 2.35272 18.9718C2.43333 19.1848 2.40443 19.095 2.47592 19.1589C2.32383 19.0935 2.17174 19.0311 2.01964 18.9627C1.44778 14.914 3.33371 10.5338 5.97402 9.25928ZM18.952 12.8486C20.9664 12.9418 22.9851 12.843 24.9809 12.5536C23.685 13.0798 21.4447 13.0889 18.952 12.8486Z" fill="#FEFEFE"/>
<path fill-rule="evenodd" clip-rule="evenodd" d="M18.0142 13.9802C18.0142 13.9802 21.5442 14.2616 24.9237 13.2289C28.5936 12.1065 32.7503 11.8433 33.7647 13.384C38.3427 23.3369 2.61795 24.5399 5.43925 14.6007C6.11605 12.216 13.4347 15.4479 17.4818 14.073C17.5837 14.0441 17.7389 14.1445 18.0142 13.9802Z" fill="#FEFEFE"/>
<path fill-rule="evenodd" clip-rule="evenodd" d="M11.348 18.3726C11.6738 18.4343 12.0105 18.3978 12.3156 18.2677C12.6206 18.1377 12.88 17.9199 13.0611 17.6421C13.2421 17.3643 13.3364 17.0389 13.3322 16.7074C13.328 16.3758 13.2253 16.053 13.0372 15.7799C12.8492 15.5068 12.5842 15.2958 12.276 15.1736C11.9677 15.0514 11.6301 15.0235 11.306 15.0935C10.9819 15.1635 10.6859 15.3283 10.4557 15.5669C10.2254 15.8054 10.0712 16.107 10.0126 16.4334C9.93477 16.8674 10.0314 17.3145 10.2814 17.6776C10.5315 18.0408 10.9148 18.2905 11.348 18.3726Z" fill="#1494E3"/>
<path fill-rule="evenodd" clip-rule="evenodd" d="M5.41602 15.1072C5.41602 15.1072 5.41297 12.3832 9.71868 12.9277C14.0244 13.4722 18.5719 14.9612 28.362 12.9277C34.1172 11.6365 33.8966 15.2319 33.8966 15.2319C33.8966 15.2319 34.0746 17.708 28.1019 19.8205C22.1293 21.933 12.4031 21.7125 8.21297 18.9338C5.69586 17.6425 5.45708 15.9483 5.41602 15.1072Z" fill="#1EA3F5"/>
<path fill-rule="evenodd" clip-rule="evenodd" d="M25.6445 18.3893C25.8421 18.4257 26.0461 18.4026 26.2306 18.3231C26.4151 18.2436 26.5719 18.1111 26.6812 17.9425C26.7904 17.7738 26.8472 17.5766 26.8443 17.3756C26.8415 17.1747 26.7791 16.9792 26.6651 16.8137C26.5511 16.6483 26.3906 16.5203 26.2039 16.4461C26.0172 16.3718 25.8126 16.3546 25.6162 16.3966C25.4197 16.4386 25.24 16.5379 25.1 16.682C24.9599 16.826 24.8657 17.0084 24.8293 17.206C24.8051 17.3372 24.807 17.4719 24.8349 17.6024C24.8628 17.7329 24.9161 17.8566 24.9918 17.9665C25.0675 18.0764 25.1641 18.1703 25.2761 18.2428C25.3881 18.3154 25.5133 18.3651 25.6445 18.3893Z" fill="#061223"/>
<path fill-rule="evenodd" clip-rule="evenodd" d="M25.4545 18.0168C25.516 18.0281 25.5795 18.0209 25.637 17.9961C25.6945 17.9713 25.7433 17.93 25.7773 17.8775C25.8113 17.8249 25.8289 17.7635 25.828 17.7009C25.827 17.6384 25.8076 17.5775 25.772 17.526C25.7365 17.4744 25.6865 17.4346 25.6283 17.4116C25.5701 17.3885 25.5064 17.3832 25.4452 17.3963C25.3841 17.4095 25.3281 17.4405 25.2846 17.4854C25.241 17.5303 25.2117 17.5872 25.2005 17.6487C25.1854 17.7312 25.2037 17.8163 25.2513 17.8853C25.2989 17.9543 25.372 18.0016 25.4545 18.0168Z" fill="#FEFEFE"/>
<path fill-rule="evenodd" clip-rule="evenodd" d="M12.8913 18.2373C12.6937 18.2737 12.4897 18.2507 12.3052 18.1711C12.1207 18.0916 11.9639 17.9591 11.8547 17.7905C11.7454 17.6218 11.6886 17.4246 11.6915 17.2237C11.6944 17.0228 11.7567 16.8272 11.8707 16.6617C11.9847 16.4963 12.1452 16.3683 12.3319 16.2941C12.5187 16.2198 12.7232 16.2026 12.9197 16.2446C13.1162 16.2866 13.2958 16.3859 13.4359 16.53C13.5759 16.6741 13.6701 16.8564 13.7065 17.054C13.7549 17.319 13.6963 17.5924 13.5435 17.8142C13.3907 18.036 13.1561 18.1882 12.8913 18.2373Z" fill="#061223"/>
<path fill-rule="evenodd" clip-rule="evenodd" d="M13.0794 17.8646C13.0182 17.8757 12.955 17.8684 12.8978 17.8436C12.8406 17.8189 12.7921 17.7779 12.7581 17.7257C12.7242 17.6735 12.7064 17.6124 12.707 17.5501C12.7077 17.4878 12.7267 17.4271 12.7616 17.3756C12.7966 17.3241 12.846 17.284 12.9037 17.2605C12.9613 17.2369 13.0246 17.2309 13.0857 17.2431C13.1468 17.2554 13.2028 17.2854 13.2469 17.3294C13.291 17.3734 13.3211 17.4295 13.3334 17.4905C13.3418 17.5318 13.3418 17.5743 13.3335 17.6156C13.3252 17.6569 13.3088 17.6961 13.2851 17.731C13.2615 17.7658 13.2311 17.7956 13.1958 17.8185C13.1604 17.8415 13.1209 17.8572 13.0794 17.8646Z" fill="#FEFEFE"/>
<path fill-rule="evenodd" clip-rule="evenodd" d="M5.48242 15.1529C5.48242 15.1529 5.48242 12.4289 9.78508 12.9658C14.0877 13.5027 18.6383 14.9993 28.4284 12.9658C28.6976 12.9065 28.9516 12.8563 29.1889 12.8137C22.5319 15.781 11.5813 13.8403 10.2246 13.8206C6.04516 13.7491 7.79117 18.7073 11.3607 20.3316C10.2735 20.0347 9.23614 19.5786 8.28242 18.978C5.76075 17.6867 5.52349 15.9939 5.48242 15.1529Z" fill="#1494E3"/>
<path fill-rule="evenodd" clip-rule="evenodd" d="M5.41602 15.1072C5.41602 15.1072 5.41602 12.6311 9.14529 12.8654C7.97419 13.3749 6.80917 14.2905 6.92628 15.9072C7.06316 17.7642 9.09054 19.2532 11.2943 20.292C10.2061 19.993 9.16785 19.5354 8.21297 18.9338C5.69586 17.6426 5.45708 15.9483 5.41602 15.1072ZM29.1286 12.7756C34.0959 11.9619 33.8966 15.2304 33.8966 15.2304C33.8966 15.2304 34.0746 17.7064 28.1019 19.819L27.8799 19.895C29.6943 18.8304 31.8343 17.2197 31.8251 15.5984C31.8236 13.6654 30.5795 13.0311 29.1286 12.7756Z" fill="#A9ABAE"/>
<path fill-rule="evenodd" clip-rule="evenodd" d="M31.5221 4.87454C25.9921 0.380245 17.7837 -0.392379 11.5723 3.09812C10.2826 3.82359 8.06054 5.42815 7.12974 6.52777C6.77993 6.93842 7.2286 7.39773 7.4613 7.7445C11.1358 13.1666 19.4187 14.905 25.2316 11.9894C28.1442 10.5247 30.0788 8.29812 31.6453 5.48899C31.6676 5.45313 31.6846 5.41418 31.6955 5.3734V5.34907C31.7061 5.2938 31.7061 5.23703 31.6955 5.18177V5.17112C31.6835 5.10123 31.6554 5.03509 31.6134 4.97796C31.5877 4.94497 31.5575 4.91579 31.5237 4.89127L31.5221 4.87454ZM30.64 5.36732C27.9024 10.0821 23.6575 12.8669 18.0484 12.4487C14.094 12.1521 10.2826 10.2631 8.06054 6.92473C9.54039 5.50268 11.0126 4.37872 12.8894 3.46161C18.5199 0.713325 25.7183 1.55135 30.64 5.36732Z" fill="#061223"/>
<path fill-rule="evenodd" clip-rule="evenodd" d="M31.2444 5.25022C27.4604 2.00915 16.4916 -2.26765 7.46191 6.8563C11.2809 13.6046 25.0239 16.8669 31.2444 5.25022Z" fill="#0975E7"/>
<path fill-rule="evenodd" clip-rule="evenodd" d="M21.2292 1.40994C16.9068 1.10576 11.944 2.32249 7.46191 6.85633L7.47408 6.87762C7.96381 6.2358 13.5699 1.79625 21.176 1.47838L21.2292 1.40994Z" fill="#FEFEFE"/>
<path opacity="0.21" fill-rule="evenodd" clip-rule="evenodd" d="M5.41602 15.1072C5.41602 15.1072 5.41297 12.3832 9.71868 12.9277C14.0244 13.4722 18.5719 14.9612 28.362 12.9277C34.1172 11.6365 33.8966 15.2319 33.8966 15.2319C33.8966 15.2319 34.0746 17.708 28.1019 19.8205C22.1293 21.933 12.4031 21.7125 8.21297 18.9338C5.69586 17.6425 5.45708 15.9483 5.41602 15.1072Z" fill="#FEFEFE"/>
<path opacity="0.21" fill-rule="evenodd" clip-rule="evenodd" d="M10.5426 13.0327C11.7441 13.2091 12.9882 13.4373 14.3799 13.6228L8.28557 18.978L8.2156 18.9339C6.91522 18.2677 6.22321 17.4951 5.85059 16.7879L10.5426 13.0327ZM17.6909 13.9225L10.2932 19.9574C10.9209 20.1871 11.5619 20.3791 12.2126 20.5323L20.1213 13.9453C19.2574 13.9666 18.4483 13.9574 17.6878 13.924L17.6909 13.9225ZM26.9015 13.2046C27.373 13.1179 27.8582 13.0251 28.3555 12.9217C29.0691 12.7521 29.7987 12.6583 30.532 12.6418L22.0346 21.0738C20.8719 21.1839 19.7044 21.2347 18.5365 21.2259L26.9015 13.2V13.2046ZM33.1829 13.489L26.9198 20.1886C27.3274 20.073 27.7228 19.9483 28.1031 19.8145C34.0757 17.7019 33.8977 15.2259 33.8977 15.2259C33.9004 14.9039 33.8391 14.5845 33.7175 14.2864C33.5958 13.9882 33.4162 13.7172 33.189 13.489H33.1829Z" fill="#FEFEFE"/>
<path d="M15.4674 29.3353C15.8993 28.727 17.1966 28.4562 17.8917 28.4821C18.2701 28.4885 18.6422 28.5797 18.9807 28.7489C19.3192 28.9182 19.6154 29.1612 19.8476 29.46C20.2506 30.0045 21.1754 29.4737 20.7601 28.9216C20.4294 28.4663 19.9978 28.0936 19.4992 27.8326C19.0005 27.5717 18.4483 27.4296 17.8856 27.4175C16.7647 27.384 15.2149 27.8494 14.5396 28.7969C14.1427 29.3566 15.0643 29.8889 15.4522 29.3353H15.4674Z" fill="#006CCE"/>
<path d="M14.7268 29.2016C14.8789 28.6997 15.3474 28.3331 15.7915 28.0822C16.3409 27.7657 16.96 27.5897 17.5938 27.5696C18.205 27.5524 18.8108 27.6881 19.3564 27.9643C19.9019 28.2405 20.3698 28.6485 20.7177 29.1514C20.8789 29.3947 21.2744 29.1666 21.1116 28.9202C19.8477 27.016 17.1329 26.5689 15.2759 27.8677C14.8424 28.1719 14.4531 28.5673 14.2903 29.0844C14.2006 29.3658 14.6401 29.486 14.7299 29.2061L14.7268 29.2016Z" fill="#061223"/>
</g>
<defs>
<clipPath id="clip0_3336_21686">
<rect width="40" height="40.7605" fill="white"/>
</clipPath>
</defs>
</svg>
