<svg width="99" height="32" viewBox="0 0 99 32" fill="none" xmlns="http://www.w3.org/2000/svg">
<path d="M1.25263 22.664C2.65663 22.364 3.78463 22.04 4.63663 21.692C5.50063 21.344 6.13663 20.936 6.54463 20.468C6.95263 20 7.15663 19.442 7.15663 18.794C7.15663 18.074 7.05463 17.378 6.85063 16.706C6.65863 16.034 6.39463 15.494 6.05863 15.086C5.72263 14.666 5.35663 14.456 4.96063 14.456C4.73263 14.456 4.51663 14.54 4.31263 14.708C4.12063 14.864 3.96463 15.062 3.84463 15.302C3.73663 15.542 3.68263 15.764 3.68263 15.968C3.68263 16.136 3.71863 16.274 3.79063 16.382C3.99463 16.622 4.44463 16.784 5.14062 16.868C5.84863 16.94 6.83863 16.976 8.11063 16.976H9.85663L10.0186 18.488L9.85663 20L7.53463 20.018C5.99863 20.018 4.77463 19.898 3.86263 19.658C2.95063 19.406 2.32063 18.89 1.97263 18.11C1.75663 17.618 1.64863 17.078 1.64863 16.49C1.64863 15.746 1.80463 15.014 2.11663 14.294C2.42863 13.562 2.85463 12.962 3.39463 12.494C3.94663 12.026 4.55263 11.792 5.21263 11.792C5.94463 11.792 6.61063 12.104 7.21063 12.728C7.82263 13.352 8.30263 14.18 8.65063 15.212C8.99863 16.232 9.17263 17.324 9.17263 18.488C9.17263 19.64 8.89063 20.678 8.32663 21.602C7.76263 22.538 6.95863 23.318 5.91463 23.942C4.87063 24.566 3.62863 25.01 2.18863 25.274L1.25263 22.664ZM9.62094 16.976H10.5209C11.6729 16.976 12.4889 16.88 12.9689 16.688C13.4609 16.496 13.7069 16.214 13.7069 15.842C13.7069 15.614 13.5749 15.14 13.3109 14.42C13.0469 13.688 12.8489 13.184 12.7169 12.908L14.8049 11.756C15.0449 12.26 15.2849 12.932 15.5249 13.772C15.7769 14.612 15.9029 15.356 15.9029 16.004C15.9029 17.288 15.4889 18.278 14.6609 18.974C13.8329 19.658 12.6149 20 11.0069 20H9.62094V16.976ZM11.2769 8.012L12.8789 9.596L11.2769 11.216L9.67494 9.596L11.2769 8.012ZM14.4269 8.012L16.0289 9.596L14.4269 11.216L12.8249 9.596L14.4269 8.012ZM21.7303 20C20.3863 20 19.4083 19.61 18.7963 18.83C18.1843 18.038 17.8723 16.856 17.8603 15.284C17.8123 11.792 17.6383 9.02 17.3383 6.968L19.8223 6.41C19.9663 7.454 20.0743 8.822 20.1463 10.514C20.2303 12.194 20.2723 13.742 20.2723 15.158C20.2723 15.638 20.3143 16.01 20.3983 16.274C20.4823 16.526 20.6263 16.706 20.8303 16.814C21.0343 16.922 21.3343 16.976 21.7303 16.976H21.8023L21.9643 18.488L21.8023 20H21.7303ZM21.6624 16.976H21.7524C22.7004 16.976 23.4324 16.934 23.9484 16.85C24.4644 16.766 24.8244 16.634 25.0284 16.454C25.2444 16.274 25.3644 16.028 25.3884 15.716C25.4244 15.224 25.3644 14.57 25.2084 13.754L27.2604 13.358C27.4284 14.258 27.5124 15.254 27.5124 16.346C27.5364 16.49 27.6444 16.634 27.8364 16.778C28.0404 16.91 28.3464 16.976 28.7544 16.976H28.8444L29.0064 18.488L28.8444 20H28.7544C28.2024 20 27.6924 19.862 27.2244 19.586C26.7684 19.298 26.3844 18.926 26.0724 18.47L26.5584 18.578C26.1864 19.082 25.6404 19.448 24.9204 19.676C24.2004 19.892 23.1444 20 21.7524 20H21.6624V16.976ZM24.6684 24.662L23.0664 23.078L24.6684 21.458L26.2704 23.078L24.6684 24.662ZM21.5184 24.662L19.9164 23.078L21.5184 21.458L23.1204 23.078L21.5184 24.662ZM42.248 20C39.536 19.988 37.844 18.98 37.172 16.976L38.684 15.554C38.744 15.746 38.888 15.95 39.116 16.166C39.344 16.382 39.644 16.574 40.016 16.742C40.4 16.898 40.832 16.976 41.312 16.976H42.446L42.608 18.488L42.446 20H42.248ZM28.64 16.976H29.882C31.286 16.976 32.594 16.832 33.806 16.544C35.018 16.244 36.35 15.71 37.802 14.942C38.858 14.378 39.578 14.042 39.962 13.934L40.052 16.22C39.428 16.112 38.828 15.962 38.252 15.77C37.676 15.566 36.974 15.254 36.146 14.834C35.666 14.594 35.18 14.408 34.688 14.276C34.208 14.132 33.776 14.06 33.392 14.06C32.96 14.06 32.576 14.174 32.24 14.402C31.916 14.63 31.658 14.882 31.466 15.158L29.792 13.916C30.728 12.056 31.964 11.126 33.5 11.126C34.016 11.126 34.508 11.21 34.976 11.378C35.456 11.546 36.152 11.864 37.064 12.332C37.748 12.692 38.33 12.962 38.81 13.142C39.302 13.322 39.842 13.472 40.43 13.592L40.52 16.328C40.208 16.412 39.632 16.694 38.792 17.174L38.108 17.534C36.86 18.182 35.798 18.68 34.922 19.028C34.046 19.376 33.164 19.622 32.276 19.766C31.388 19.91 30.35 19.988 29.162 20H28.64V16.976ZM34.04 22.07C34.292 21.806 34.55 21.548 34.814 21.296L35.408 21.89C36.2 22.682 36.596 23.078 36.596 23.078L34.814 24.878C34.814 24.878 34.418 24.482 33.626 23.69L33.014 23.078L34.04 22.07ZM42.2635 16.976H43.1635C44.3155 16.976 45.1315 16.88 45.6115 16.688C46.1035 16.496 46.3495 16.214 46.3495 15.842C46.3495 15.614 46.2175 15.14 45.9535 14.42C45.6895 13.688 45.4915 13.184 45.3595 12.908L47.4475 11.756C47.6875 12.26 47.9275 12.932 48.1675 13.772C48.4195 14.612 48.5455 15.356 48.5455 16.004C48.5455 17.288 48.1315 18.278 47.3035 18.974C46.4755 19.658 45.2575 20 43.6495 20H42.2635V16.976ZM45.6115 24.662L44.0095 23.078L45.6115 21.458L47.2135 23.078L45.6115 24.662ZM42.4615 24.662L40.8595 23.078L42.4615 21.458L44.0635 23.078L42.4615 24.662ZM53.9949 20.09C52.9149 20.09 52.0149 19.922 51.2949 19.586C50.5869 19.25 50.0529 18.926 49.6929 18.614L50.7549 16.49C51.1629 16.682 51.5949 16.856 52.0509 17.012C52.5189 17.156 53.0709 17.228 53.7069 17.228C54.3429 17.216 54.8709 17.15 55.2909 17.03C55.7109 16.898 55.9869 16.76 56.1189 16.616C56.1429 16.436 56.0589 16.16 55.8669 15.788C55.6869 15.404 55.3149 14.924 54.7509 14.348C54.1989 13.76 53.4069 13.124 52.3749 12.44L53.8149 9.776C55.2189 10.748 56.3349 11.84 57.1629 13.052C58.0029 14.252 58.4229 15.404 58.4229 16.508C58.4229 17.024 58.3269 17.498 58.1349 17.93C57.8349 18.626 57.2949 19.16 56.5149 19.532C55.7469 19.904 54.9069 20.09 53.9949 20.09Z" fill="#0075E7"/>
<path fill-rule="evenodd" clip-rule="evenodd" d="M87.9533 29.9464C95.7309 27.156 99.738 18.6706 96.9034 10.9938C94.0689 3.31703 85.466 -0.644167 77.6884 2.14624C69.9108 4.93665 65.9037 13.422 68.7383 21.0988C71.5729 28.7756 80.1758 32.7368 87.9533 29.9464Z" fill="#3391EC"/>
<path fill-rule="evenodd" clip-rule="evenodd" d="M94.895 8.02979C95.0357 7.97932 95.1768 7.93172 95.3181 7.88696C95.9552 8.83757 96.49 9.87628 96.9026 10.9937C99.2023 17.222 96.9986 23.9826 91.9316 27.8022C90.2013 26.5229 88.8155 24.7494 88.0202 22.5955C85.8415 16.695 88.9194 10.1737 94.895 8.02979Z" fill="#0075E7"/>
<path fill-rule="evenodd" clip-rule="evenodd" d="M68.3806 17.5427C74.3562 15.3988 80.9665 18.4441 83.1452 24.3446C83.9421 26.5026 84.0357 28.7436 83.5417 30.8231C77.1565 31.1232 71.0419 27.3382 68.738 21.0986C68.3256 19.9817 68.058 18.8477 67.9258 17.7167C68.0756 17.6556 68.2272 17.5977 68.3806 17.5427Z" fill="#0075E7"/>
<path fill-rule="evenodd" clip-rule="evenodd" d="M77.6865 2.14624C81.4189 0.807149 85.3414 1.02292 88.7252 2.45803C88.2164 6.56547 85.4449 10.2478 81.2356 11.758C77.0263 13.2682 72.502 12.2035 69.4336 9.37965C71.0901 6.13595 73.9541 3.48534 77.6865 2.14624Z" fill="#0075E7"/>
<path fill-rule="evenodd" clip-rule="evenodd" d="M95.4077 9.35391C96.0284 9.13123 96.6569 8.9724 97.2858 8.87402C97.5582 9.41349 97.8026 9.9735 98.0166 10.5531C100.273 16.6634 98.5242 23.2471 94.093 27.5052C91.9825 26.3856 90.2645 24.526 89.3797 22.1296C87.4686 16.9539 90.1674 11.234 95.4077 9.35391Z" fill="#3391EC"/>
<path fill-rule="evenodd" clip-rule="evenodd" d="M68.8911 18.867C74.1314 16.9869 79.9287 19.6585 81.8398 24.8342C82.7329 27.2532 82.6192 29.791 81.7096 32.0001C75.4905 31.589 69.7984 27.642 67.5274 21.4914C67.3172 20.9221 67.1417 20.3487 67 19.7735C67.5855 19.414 68.2173 19.1087 68.8911 18.867Z" fill="#3391EC"/>
<path fill-rule="evenodd" clip-rule="evenodd" d="M77.2391 0.967682C80.641 -0.252824 84.1887 -0.280277 87.4113 0.66858C87.597 4.89758 85.0204 8.93542 80.7785 10.4573C76.5228 11.9842 71.8996 10.509 69.2891 7.12853C71.1383 4.38524 73.86 2.18002 77.2391 0.967682Z" fill="#3391EC"/>
</svg>
